<svg width="171" height="24" viewBox="0 0 171 24" fill="none" xmlns="http://www.w3.org/2000/svg">
<path d="M21.46 19L26.58 5H29.46L34.58 19H31.86L30.74 15.76H25.28L24.14 19H21.46ZM25.98 13.76H30.04L28 7.94L25.98 13.76ZM40.4147 19.24C39.4814 19.24 38.648 19.0133 37.9147 18.56C37.1814 18.1067 36.6014 17.4867 36.1747 16.7C35.748 15.9133 35.5347 15.02 35.5347 14.02C35.5347 13.02 35.748 12.1333 36.1747 11.36C36.6014 10.5733 37.1814 9.96 37.9147 9.52C38.648 9.06667 39.4814 8.84 40.4147 8.84C41.1614 8.84 41.8147 8.98 42.3747 9.26C42.9347 9.54 43.388 9.93333 43.7347 10.44V4.6H46.2947V19H44.0147L43.7347 17.58C43.4147 18.02 42.988 18.4067 42.4547 18.74C41.9347 19.0733 41.2547 19.24 40.4147 19.24ZM40.9547 17C41.7814 17 42.4547 16.7267 42.9747 16.18C43.508 15.62 43.7747 14.9067 43.7747 14.04C43.7747 13.1733 43.508 12.4667 42.9747 11.92C42.4547 11.36 41.7814 11.08 40.9547 11.08C40.1414 11.08 39.468 11.3533 38.9347 11.9C38.4014 12.4467 38.1347 13.1533 38.1347 14.02C38.1347 14.8867 38.4014 15.6 38.9347 16.16C39.468 16.72 40.1414 17 40.9547 17ZM53.4616 19.24C52.5282 19.24 51.6949 19.0133 50.9616 18.56C50.2282 18.1067 49.6482 17.4867 49.2216 16.7C48.7949 15.9133 48.5816 15.02 48.5816 14.02C48.5816 13.02 48.7949 12.1333 49.2216 11.36C49.6482 10.5733 50.2282 9.96 50.9616 9.52C51.6949 9.06667 52.5282 8.84 53.4616 8.84C54.2082 8.84 54.8616 8.98 55.4216 9.26C55.9816 9.54 56.4349 9.93333 56.7816 10.44V4.6H59.3416V19H57.0616L56.7816 17.58C56.4616 18.02 56.0349 18.4067 55.5016 18.74C54.9816 19.0733 54.3016 19.24 53.4616 19.24ZM54.0016 17C54.8282 17 55.5016 16.7267 56.0216 16.18C56.5549 15.62 56.8216 14.9067 56.8216 14.04C56.8216 13.1733 56.5549 12.4667 56.0216 11.92C55.5016 11.36 54.8282 11.08 54.0016 11.08C53.1882 11.08 52.5149 11.3533 51.9816 11.9C51.4482 12.4467 51.1816 13.1533 51.1816 14.02C51.1816 14.8867 51.4482 15.6 51.9816 16.16C52.5149 16.72 53.1882 17 54.0016 17ZM71.1341 19C70.0941 19 69.2607 18.7467 68.6341 18.24C68.0074 17.7333 67.6941 16.8333 67.6941 15.54V11.22H65.9941V9.08H67.6941L67.9941 6.42H70.2541V9.08H72.9341V11.22H70.2541V15.56C70.2541 16.04 70.3541 16.3733 70.5541 16.56C70.7674 16.7333 71.1274 16.82 71.6341 16.82H72.8741V19H71.1341ZM79.6381 19.24C78.6781 19.24 77.8115 19.02 77.0381 18.58C76.2781 18.14 75.6715 17.5333 75.2181 16.76C74.7781 15.9733 74.5581 15.0667 74.5581 14.04C74.5581 13.0133 74.7848 12.1133 75.2381 11.34C75.6915 10.5533 76.2981 9.94 77.0581 9.5C77.8315 9.06 78.6981 8.84 79.6581 8.84C80.6048 8.84 81.4581 9.06 82.2181 9.5C82.9915 9.94 83.5981 10.5533 84.0381 11.34C84.4915 12.1133 84.7181 13.0133 84.7181 14.04C84.7181 15.0667 84.4915 15.9733 84.0381 16.76C83.5981 17.5333 82.9915 18.14 82.2181 18.58C81.4448 19.02 80.5848 19.24 79.6381 19.24ZM79.6381 17.02C80.3048 17.02 80.8848 16.7733 81.3781 16.28C81.8715 15.7733 82.1181 15.0267 82.1181 14.04C82.1181 13.0533 81.8715 12.3133 81.3781 11.82C80.8848 11.3133 80.3115 11.06 79.6581 11.06C78.9781 11.06 78.3915 11.3133 77.8981 11.82C77.4181 12.3133 77.1781 13.0533 77.1781 14.04C77.1781 15.0267 77.4181 15.7733 77.8981 16.28C78.3915 16.7733 78.9715 17.02 79.6381 17.02ZM98.1727 19.24C96.7593 19.24 95.546 18.94 94.5327 18.34C93.5193 17.7267 92.7393 16.88 92.1927 15.8C91.646 14.7067 91.3727 13.4467 91.3727 12.02C91.3727 10.5933 91.646 9.33333 92.1927 8.24C92.7393 7.14667 93.5193 6.29333 94.5327 5.68C95.546 5.06667 96.7593 4.76 98.1727 4.76C99.8527 4.76 101.226 5.18 102.293 6.02C103.373 6.84667 104.046 8.01333 104.313 9.52H101.493C101.319 8.76 100.946 8.16667 100.373 7.74C99.8127 7.3 99.066 7.08 98.1327 7.08C96.8393 7.08 95.826 7.52 95.0927 8.4C94.3593 9.28 93.9927 10.4867 93.9927 12.02C93.9927 13.5533 94.3593 14.76 95.0927 15.64C95.826 16.5067 96.8393 16.94 98.1327 16.94C99.066 16.94 99.8127 16.74 100.373 16.34C100.946 15.9267 101.319 15.36 101.493 14.64H104.313C104.046 16.08 103.373 17.2067 102.293 18.02C101.226 18.8333 99.8527 19.24 98.1727 19.24ZM106.519 19V4.6H109.079V10.6C109.412 10.0533 109.859 9.62667 110.419 9.32C110.992 9 111.645 8.84 112.379 8.84C113.605 8.84 114.552 9.22667 115.219 10C115.899 10.7733 116.239 11.9067 116.239 13.4V19H113.699V13.64C113.699 12.7867 113.525 12.1333 113.179 11.68C112.845 11.2267 112.312 11 111.579 11C110.859 11 110.259 11.2533 109.779 11.76C109.312 12.2667 109.079 12.9733 109.079 13.88V19H106.519ZM122.107 19.24C121.253 19.24 120.553 19.1067 120.007 18.84C119.46 18.56 119.053 18.1933 118.787 17.74C118.52 17.2867 118.387 16.7867 118.387 16.24C118.387 15.32 118.747 14.5733 119.467 14C120.187 13.4267 121.267 13.14 122.707 13.14H125.227V12.9C125.227 12.22 125.033 11.72 124.647 11.4C124.26 11.08 123.78 10.92 123.207 10.92C122.687 10.92 122.233 11.0467 121.847 11.3C121.46 11.54 121.22 11.9 121.127 12.38H118.627C118.693 11.66 118.933 11.0333 119.347 10.5C119.773 9.96667 120.32 9.56 120.987 9.28C121.653 8.98667 122.4 8.84 123.227 8.84C124.64 8.84 125.753 9.19333 126.567 9.9C127.38 10.6067 127.787 11.6067 127.787 12.9V19H125.607L125.367 17.4C125.073 17.9333 124.66 18.3733 124.127 18.72C123.607 19.0667 122.933 19.24 122.107 19.24ZM122.687 17.24C123.42 17.24 123.987 17 124.387 16.52C124.8 16.04 125.06 15.4467 125.167 14.74H122.987C122.307 14.74 121.82 14.8667 121.527 15.12C121.233 15.36 121.087 15.66 121.087 16.02C121.087 16.4067 121.233 16.7067 121.527 16.92C121.82 17.1333 122.207 17.24 122.687 17.24ZM134.513 19C133.473 19 132.64 18.7467 132.013 18.24C131.386 17.7333 131.073 16.8333 131.073 15.54V11.22H129.373V9.08H131.073L131.373 6.42H133.633V9.08H136.313V11.22H133.633V15.56C133.633 16.04 133.733 16.3733 133.933 16.56C134.146 16.7333 134.506 16.82 135.013 16.82H136.253V19H134.513ZM144.391 19.24C143.644 19.24 142.991 19.1 142.431 18.82C141.871 18.54 141.418 18.1467 141.071 17.64L140.791 19H138.511V4.6H141.071V10.5C141.391 10.06 141.811 9.67333 142.331 9.34C142.864 9.00667 143.551 8.84 144.391 8.84C145.324 8.84 146.158 9.06667 146.891 9.52C147.624 9.97333 148.204 10.5933 148.631 11.38C149.058 12.1667 149.271 13.06 149.271 14.06C149.271 15.06 149.058 15.9533 148.631 16.74C148.204 17.5133 147.624 18.1267 146.891 18.58C146.158 19.02 145.324 19.24 144.391 19.24ZM143.851 17C144.664 17 145.338 16.7267 145.871 16.18C146.404 15.6333 146.671 14.9267 146.671 14.06C146.671 13.1933 146.404 12.48 145.871 11.92C145.338 11.36 144.664 11.08 143.851 11.08C143.024 11.08 142.344 11.36 141.811 11.92C141.291 12.4667 141.031 13.1733 141.031 14.04C141.031 14.9067 141.291 15.62 141.811 16.18C142.344 16.7267 143.024 17 143.851 17ZM156.318 19.24C155.358 19.24 154.491 19.02 153.718 18.58C152.958 18.14 152.351 17.5333 151.898 16.76C151.458 15.9733 151.238 15.0667 151.238 14.04C151.238 13.0133 151.464 12.1133 151.918 11.34C152.371 10.5533 152.978 9.94 153.738 9.5C154.511 9.06 155.378 8.84 156.338 8.84C157.284 8.84 158.138 9.06 158.898 9.5C159.671 9.94 160.278 10.5533 160.718 11.34C161.171 12.1133 161.398 13.0133 161.398 14.04C161.398 15.0667 161.171 15.9733 160.718 16.76C160.278 17.5333 159.671 18.14 158.898 18.58C158.124 19.02 157.264 19.24 156.318 19.24ZM156.318 17.02C156.984 17.02 157.564 16.7733 158.058 16.28C158.551 15.7733 158.798 15.0267 158.798 14.04C158.798 13.0533 158.551 12.3133 158.058 11.82C157.564 11.3133 156.991 11.06 156.338 11.06C155.658 11.06 155.071 11.3133 154.578 11.82C154.098 12.3133 153.858 13.0533 153.858 14.04C153.858 15.0267 154.098 15.7733 154.578 16.28C155.071 16.7733 155.651 17.02 156.318 17.02ZM167.716 19C166.676 19 165.843 18.7467 165.216 18.24C164.589 17.7333 164.276 16.8333 164.276 15.54V11.22H162.576V9.08H164.276L164.576 6.42H166.836V9.08H169.516V11.22H166.836V15.56C166.836 16.04 166.936 16.3733 167.136 16.56C167.349 16.7333 167.709 16.82 168.216 16.82H169.456V19H167.716Z" fill="#267171"/>
<path d="M2.1001 11.9996H7.0001M7.0001 11.9996H11.9001M7.0001 11.9996L7.0001 7.09961M7.0001 11.9996L7.0001 16.8996" stroke="#267171" stroke-width="1.4" stroke-linecap="round"/>
</svg>
