<svg width="202" height="894" viewBox="0 0 202 894" fill="none" xmlns="http://www.w3.org/2000/svg">
<rect width="202" height="894" fill="#E7DFC6"/>
<path d="M23.184 224V212.8H26.864C27.7387 212.8 28.4587 212.944 29.024 213.232C29.5893 213.52 30.0053 213.909 30.272 214.4C30.5493 214.891 30.688 215.445 30.688 216.064C30.688 216.672 30.5547 217.221 30.288 217.712C30.0213 218.203 29.6053 218.597 29.04 218.896C28.4747 219.184 27.7493 219.328 26.864 219.328H24.528V224H23.184ZM24.528 218.192H26.832C27.728 218.192 28.3627 218.005 28.736 217.632C29.12 217.248 29.312 216.725 29.312 216.064C29.312 215.392 29.12 214.869 28.736 214.496C28.3627 214.112 27.728 213.92 26.832 213.92H24.528V218.192ZM35.5169 224.192C34.7702 224.192 34.0982 224.021 33.5009 223.68C32.9035 223.339 32.4289 222.859 32.0769 222.24C31.7355 221.611 31.5649 220.875 31.5649 220.032C31.5649 219.189 31.7409 218.459 32.0929 217.84C32.4449 217.211 32.9195 216.725 33.5169 216.384C34.1249 216.043 34.8022 215.872 35.5489 215.872C36.2955 215.872 36.9675 216.043 37.5649 216.384C38.1622 216.725 38.6315 217.211 38.9729 217.84C39.3249 218.459 39.5009 219.189 39.5009 220.032C39.5009 220.875 39.3249 221.611 38.9729 222.24C38.6209 222.859 38.1409 223.339 37.5329 223.68C36.9355 224.021 36.2635 224.192 35.5169 224.192ZM35.5169 223.04C35.9755 223.04 36.4022 222.928 36.7969 222.704C37.1915 222.48 37.5115 222.144 37.7569 221.696C38.0022 221.248 38.1249 220.693 38.1249 220.032C38.1249 219.371 38.0022 218.816 37.7569 218.368C37.5222 217.92 37.2075 217.584 36.8129 217.36C36.4182 217.136 35.9969 217.024 35.5489 217.024C35.0902 217.024 34.6635 217.136 34.2689 217.36C33.8742 217.584 33.5542 217.92 33.3089 218.368C33.0635 218.816 32.9409 219.371 32.9409 220.032C32.9409 220.693 33.0635 221.248 33.3089 221.696C33.5542 222.144 33.8689 222.48 34.2529 222.704C34.6475 222.928 35.0689 223.04 35.5169 223.04ZM41.3696 224V212.48H42.7136V224H41.3696ZM45.7325 214.304C45.4658 214.304 45.2418 214.219 45.0605 214.048C44.8898 213.867 44.8045 213.643 44.8045 213.376C44.8045 213.12 44.8898 212.907 45.0605 212.736C45.2418 212.565 45.4658 212.48 45.7325 212.48C45.9885 212.48 46.2072 212.565 46.3885 212.736C46.5698 212.907 46.6605 213.12 46.6605 213.376C46.6605 213.643 46.5698 213.867 46.3885 214.048C46.2072 214.219 45.9885 214.304 45.7325 214.304ZM45.0605 224V216.064H46.4045V224H45.0605ZM52.3926 224.192C51.6353 224.192 50.9526 224.021 50.3446 223.68C49.7473 223.328 49.2726 222.843 48.9206 222.224C48.5793 221.595 48.4086 220.864 48.4086 220.032C48.4086 219.2 48.5793 218.475 48.9206 217.856C49.2726 217.227 49.7473 216.741 50.3446 216.4C50.9526 216.048 51.6353 215.872 52.3926 215.872C53.3313 215.872 54.1206 216.117 54.7606 216.608C55.4113 217.099 55.822 217.755 55.9926 218.576H54.6166C54.51 218.085 54.2486 217.707 53.8326 217.44C53.4166 217.163 52.9313 217.024 52.3766 217.024C51.9286 217.024 51.5073 217.136 51.1126 217.36C50.718 217.584 50.398 217.92 50.1526 218.368C49.9073 218.816 49.7846 219.371 49.7846 220.032C49.7846 220.693 49.9073 221.248 50.1526 221.696C50.398 222.144 50.718 222.485 51.1126 222.72C51.5073 222.944 51.9286 223.056 52.3766 223.056C52.9313 223.056 53.4166 222.923 53.8326 222.656C54.2486 222.379 54.51 221.989 54.6166 221.488H55.9926C55.8326 222.288 55.4273 222.939 54.7766 223.44C54.126 223.941 53.3313 224.192 52.3926 224.192ZM58.6856 214.304C58.419 214.304 58.195 214.219 58.0136 214.048C57.843 213.867 57.7576 213.643 57.7576 213.376C57.7576 213.12 57.843 212.907 58.0136 212.736C58.195 212.565 58.419 212.48 58.6856 212.48C58.9416 212.48 59.1603 212.565 59.3416 212.736C59.523 212.907 59.6136 213.12 59.6136 213.376C59.6136 213.643 59.523 213.867 59.3416 214.048C59.1603 214.219 58.9416 214.304 58.6856 214.304ZM58.0136 224V216.064H59.3576V224H58.0136ZM65.2658 224.192C64.5084 224.192 63.8364 224.021 63.2498 223.68C62.6631 223.328 62.1991 222.843 61.8578 222.224C61.5271 221.605 61.3618 220.875 61.3618 220.032C61.3618 219.2 61.5271 218.475 61.8578 217.856C62.1884 217.227 62.6471 216.741 63.2338 216.4C63.8311 216.048 64.5191 215.872 65.2977 215.872C66.0658 215.872 66.7271 216.048 67.2818 216.4C67.8471 216.741 68.2791 217.195 68.5778 217.76C68.8764 218.325 69.0258 218.933 69.0258 219.584C69.0258 219.701 69.0204 219.819 69.0098 219.936C69.0098 220.053 69.0098 220.187 69.0098 220.336H62.6898C62.7218 220.944 62.8604 221.451 63.1058 221.856C63.3618 222.251 63.6764 222.549 64.0498 222.752C64.4338 222.955 64.8391 223.056 65.2658 223.056C65.8204 223.056 66.2844 222.928 66.6578 222.672C67.0311 222.416 67.3031 222.069 67.4738 221.632H68.8018C68.5884 222.368 68.1778 222.981 67.5698 223.472C66.9724 223.952 66.2044 224.192 65.2658 224.192ZM65.2658 217.008C64.6258 217.008 64.0551 217.205 63.5538 217.6C63.0631 217.984 62.7804 218.549 62.7057 219.296H67.6978C67.6658 218.581 67.4204 218.021 66.9618 217.616C66.5031 217.211 65.9378 217.008 65.2658 217.008ZM73.8471 224.192C72.8978 224.192 72.1085 223.952 71.4791 223.472C70.8498 222.992 70.4818 222.341 70.3751 221.52H71.7511C71.8365 221.936 72.0551 222.299 72.4071 222.608C72.7698 222.907 73.2551 223.056 73.8631 223.056C74.4285 223.056 74.8445 222.939 75.1111 222.704C75.3778 222.459 75.5111 222.171 75.5111 221.84C75.5111 221.36 75.3351 221.04 74.9831 220.88C74.6418 220.72 74.1565 220.576 73.5271 220.448C73.1005 220.363 72.6738 220.24 72.2471 220.08C71.8205 219.92 71.4631 219.696 71.1751 219.408C70.8871 219.109 70.7431 218.72 70.7431 218.24C70.7431 217.547 70.9991 216.981 71.5111 216.544C72.0338 216.096 72.7378 215.872 73.6231 215.872C74.4658 215.872 75.1538 216.085 75.6871 216.512C76.2311 216.928 76.5458 217.525 76.6311 218.304H75.3031C75.2498 217.899 75.0738 217.584 74.7751 217.36C74.4871 217.125 74.0978 217.008 73.6071 217.008C73.1271 217.008 72.7538 217.109 72.4871 217.312C72.2311 217.515 72.1031 217.781 72.1031 218.112C72.1031 218.432 72.2685 218.683 72.5991 218.864C72.9405 219.045 73.3991 219.2 73.9751 219.328C74.4658 219.435 74.9298 219.568 75.3671 219.728C75.8151 219.877 76.1778 220.107 76.4551 220.416C76.7431 220.715 76.8871 221.152 76.8871 221.728C76.8978 222.443 76.6258 223.035 76.0711 223.504C75.5271 223.963 74.7858 224.192 73.8471 224.192Z" fill="black"/>
<path d="M17.184 123V111.8H18.528V116.744H24.336V111.8H25.68V123H24.336V117.848H18.528V123H17.184ZM31.5794 123.192C30.8327 123.192 30.1607 123.021 29.5634 122.68C28.966 122.339 28.4914 121.859 28.1394 121.24C27.798 120.611 27.6274 119.875 27.6274 119.032C27.6274 118.189 27.8034 117.459 28.1554 116.84C28.5074 116.211 28.982 115.725 29.5794 115.384C30.1874 115.043 30.8647 114.872 31.6114 114.872C32.358 114.872 33.03 115.043 33.6274 115.384C34.2247 115.725 34.694 116.211 35.0354 116.84C35.3874 117.459 35.5634 118.189 35.5634 119.032C35.5634 119.875 35.3874 120.611 35.0354 121.24C34.6834 121.859 34.2034 122.339 33.5954 122.68C32.998 123.021 32.326 123.192 31.5794 123.192ZM31.5794 122.04C32.038 122.04 32.4647 121.928 32.8594 121.704C33.254 121.48 33.574 121.144 33.8194 120.696C34.0647 120.248 34.1874 119.693 34.1874 119.032C34.1874 118.371 34.0647 117.816 33.8194 117.368C33.5847 116.92 33.27 116.584 32.8754 116.36C32.4807 116.136 32.0594 116.024 31.6114 116.024C31.1527 116.024 30.726 116.136 30.3314 116.36C29.9367 116.584 29.6167 116.92 29.3714 117.368C29.126 117.816 29.0034 118.371 29.0034 119.032C29.0034 119.693 29.126 120.248 29.3714 120.696C29.6167 121.144 29.9314 121.48 30.3154 121.704C30.71 121.928 31.1314 122.04 31.5794 122.04ZM37.4321 123V115.064H38.6481L38.7441 116.216C39.0001 115.789 39.3415 115.459 39.7681 115.224C40.1948 114.989 40.6748 114.872 41.2081 114.872C41.8375 114.872 42.3761 115 42.8241 115.256C43.2828 115.512 43.6348 115.901 43.8801 116.424C44.1575 115.944 44.5361 115.565 45.0161 115.288C45.5068 115.011 46.0348 114.872 46.6001 114.872C47.5495 114.872 48.3068 115.16 48.8721 115.736C49.4375 116.301 49.7201 117.176 49.7201 118.36V123H48.3921V118.504C48.3921 117.683 48.2268 117.064 47.8961 116.648C47.5655 116.232 47.0908 116.024 46.4721 116.024C45.8321 116.024 45.2988 116.275 44.8721 116.776C44.4561 117.267 44.2481 117.971 44.2481 118.888V123H42.9041V118.504C42.9041 117.683 42.7388 117.064 42.4081 116.648C42.0775 116.232 41.6028 116.024 40.9841 116.024C40.3548 116.024 39.8268 116.275 39.4001 116.776C38.9841 117.267 38.7761 117.971 38.7761 118.888V123H37.4321ZM55.3126 123.192C54.5553 123.192 53.8833 123.021 53.2966 122.68C52.71 122.328 52.246 121.843 51.9046 121.224C51.574 120.605 51.4086 119.875 51.4086 119.032C51.4086 118.2 51.574 117.475 51.9046 116.856C52.2353 116.227 52.694 115.741 53.2806 115.4C53.878 115.048 54.566 114.872 55.3446 114.872C56.1126 114.872 56.774 115.048 57.3286 115.4C57.894 115.741 58.326 116.195 58.6246 116.76C58.9233 117.325 59.0726 117.933 59.0726 118.584C59.0726 118.701 59.0673 118.819 59.0566 118.936C59.0566 119.053 59.0566 119.187 59.0566 119.336H52.7366C52.7686 119.944 52.9073 120.451 53.1526 120.856C53.4086 121.251 53.7233 121.549 54.0966 121.752C54.4806 121.955 54.886 122.056 55.3126 122.056C55.8673 122.056 56.3313 121.928 56.7046 121.672C57.078 121.416 57.35 121.069 57.5206 120.632H58.8486C58.6353 121.368 58.2246 121.981 57.6166 122.472C57.0193 122.952 56.2513 123.192 55.3126 123.192ZM55.3126 116.008C54.6726 116.008 54.102 116.205 53.6006 116.6C53.11 116.984 52.8273 117.549 52.7526 118.296H57.7446C57.7126 117.581 57.4673 117.021 57.0086 116.616C56.55 116.211 55.9846 116.008 55.3126 116.008ZM65.1684 123V111.8H68.6084C70.5817 111.8 72.0324 112.301 72.9604 113.304C73.899 114.307 74.3684 115.683 74.3684 117.432C74.3684 119.149 73.899 120.509 72.9604 121.512C72.0324 122.504 70.5817 123 68.6084 123H65.1684ZM66.5124 121.88H68.5764C69.6644 121.88 70.5284 121.704 71.1684 121.352C71.819 120.989 72.283 120.477 72.5604 119.816C72.8377 119.144 72.9764 118.349 72.9764 117.432C72.9764 116.493 72.8377 115.688 72.5604 115.016C72.283 114.344 71.819 113.827 71.1684 113.464C70.5284 113.101 69.6644 112.92 68.5764 112.92H66.5124V121.88ZM78.869 123.192C78.2077 123.192 77.6583 123.08 77.221 122.856C76.7837 122.632 76.4583 122.333 76.245 121.96C76.0317 121.587 75.925 121.181 75.925 120.744C75.925 119.933 76.2343 119.309 76.853 118.872C77.4717 118.435 78.3143 118.216 79.381 118.216H81.525V118.12C81.525 117.427 81.3437 116.904 80.981 116.552C80.6183 116.189 80.133 116.008 79.525 116.008C79.0023 116.008 78.549 116.141 78.165 116.408C77.7917 116.664 77.557 117.043 77.461 117.544H76.085C76.1383 116.968 76.3303 116.483 76.661 116.088C77.0023 115.693 77.4237 115.395 77.925 115.192C78.4263 114.979 78.9597 114.872 79.525 114.872C80.6343 114.872 81.4663 115.171 82.021 115.768C82.5863 116.355 82.869 117.139 82.869 118.12V123H81.669L81.589 121.576C81.365 122.024 81.0343 122.408 80.597 122.728C80.1703 123.037 79.5943 123.192 78.869 123.192ZM79.077 122.056C79.589 122.056 80.0263 121.923 80.389 121.656C80.7623 121.389 81.045 121.043 81.237 120.616C81.429 120.189 81.525 119.741 81.525 119.272V119.256H79.493C78.7037 119.256 78.1437 119.395 77.813 119.672C77.493 119.939 77.333 120.275 77.333 120.68C77.333 121.096 77.4823 121.432 77.781 121.688C78.0903 121.933 78.5223 122.056 79.077 122.056ZM87.9253 123.192C86.9759 123.192 86.1866 122.952 85.5573 122.472C84.9279 121.992 84.5599 121.341 84.4533 120.52H85.8293C85.9146 120.936 86.1333 121.299 86.4853 121.608C86.8479 121.907 87.3333 122.056 87.9413 122.056C88.5066 122.056 88.9226 121.939 89.1893 121.704C89.4559 121.459 89.5893 121.171 89.5893 120.84C89.5893 120.36 89.4133 120.04 89.0613 119.88C88.7199 119.72 88.2346 119.576 87.6053 119.448C87.1786 119.363 86.7519 119.24 86.3253 119.08C85.8986 118.92 85.5413 118.696 85.2533 118.408C84.9653 118.109 84.8213 117.72 84.8213 117.24C84.8213 116.547 85.0773 115.981 85.5893 115.544C86.1119 115.096 86.8159 114.872 87.7013 114.872C88.5439 114.872 89.2319 115.085 89.7653 115.512C90.3093 115.928 90.6239 116.525 90.7093 117.304H89.3813C89.3279 116.899 89.1519 116.584 88.8533 116.36C88.5653 116.125 88.1759 116.008 87.6853 116.008C87.2053 116.008 86.8319 116.109 86.5653 116.312C86.3093 116.515 86.1813 116.781 86.1813 117.112C86.1813 117.432 86.3466 117.683 86.6773 117.864C87.0186 118.045 87.4773 118.2 88.0533 118.328C88.5439 118.435 89.0079 118.568 89.4453 118.728C89.8933 118.877 90.2559 119.107 90.5333 119.416C90.8213 119.715 90.9653 120.152 90.9653 120.728C90.9759 121.443 90.7039 122.035 90.1493 122.504C89.6053 122.963 88.8639 123.192 87.9253 123.192ZM92.8853 123V111.48H94.2293V116.424C94.4959 115.933 94.8746 115.555 95.3653 115.288C95.8559 115.011 96.3893 114.872 96.9653 114.872C97.8826 114.872 98.6186 115.16 99.1733 115.736C99.7279 116.301 100.005 117.176 100.005 118.36V123H98.6773V118.504C98.6773 116.851 98.0106 116.024 96.6773 116.024C95.9839 116.024 95.4026 116.275 94.9333 116.776C94.4639 117.267 94.2293 117.971 94.2293 118.888V123H92.8853ZM106.282 123.192C105.631 123.192 105.05 123.059 104.538 122.792C104.036 122.525 103.652 122.152 103.386 121.672L103.258 123H102.042V111.48H103.386V116.376C103.642 115.992 104.004 115.645 104.474 115.336C104.954 115.027 105.562 114.872 106.298 114.872C107.087 114.872 107.775 115.053 108.362 115.416C108.948 115.779 109.402 116.275 109.722 116.904C110.052 117.533 110.218 118.248 110.218 119.048C110.218 119.848 110.052 120.563 109.722 121.192C109.402 121.811 108.943 122.301 108.346 122.664C107.759 123.016 107.071 123.192 106.282 123.192ZM106.138 122.024C106.671 122.024 107.14 121.901 107.546 121.656C107.951 121.4 108.271 121.048 108.506 120.6C108.74 120.152 108.858 119.629 108.858 119.032C108.858 118.435 108.74 117.912 108.506 117.464C108.271 117.016 107.951 116.669 107.546 116.424C107.14 116.168 106.671 116.04 106.138 116.04C105.604 116.04 105.135 116.168 104.73 116.424C104.324 116.669 104.004 117.016 103.77 117.464C103.535 117.912 103.418 118.435 103.418 119.032C103.418 119.629 103.535 120.152 103.77 120.6C104.004 121.048 104.324 121.4 104.73 121.656C105.135 121.901 105.604 122.024 106.138 122.024ZM115.704 123.192C114.958 123.192 114.286 123.021 113.688 122.68C113.091 122.339 112.616 121.859 112.264 121.24C111.923 120.611 111.752 119.875 111.752 119.032C111.752 118.189 111.928 117.459 112.28 116.84C112.632 116.211 113.107 115.725 113.704 115.384C114.312 115.043 114.99 114.872 115.736 114.872C116.483 114.872 117.155 115.043 117.752 115.384C118.35 115.725 118.819 116.211 119.16 116.84C119.512 117.459 119.688 118.189 119.688 119.032C119.688 119.875 119.512 120.611 119.16 121.24C118.808 121.859 118.328 122.339 117.72 122.68C117.123 123.021 116.451 123.192 115.704 123.192ZM115.704 122.04C116.163 122.04 116.59 121.928 116.984 121.704C117.379 121.48 117.699 121.144 117.944 120.696C118.19 120.248 118.312 119.693 118.312 119.032C118.312 118.371 118.19 117.816 117.944 117.368C117.71 116.92 117.395 116.584 117 116.36C116.606 116.136 116.184 116.024 115.736 116.024C115.278 116.024 114.851 116.136 114.456 116.36C114.062 116.584 113.742 116.92 113.496 117.368C113.251 117.816 113.128 118.371 113.128 119.032C113.128 119.693 113.251 120.248 113.496 120.696C113.742 121.144 114.056 121.48 114.44 121.704C114.835 121.928 115.256 122.04 115.704 122.04ZM124.197 123.192C123.536 123.192 122.986 123.08 122.549 122.856C122.112 122.632 121.786 122.333 121.573 121.96C121.36 121.587 121.253 121.181 121.253 120.744C121.253 119.933 121.562 119.309 122.181 118.872C122.8 118.435 123.642 118.216 124.709 118.216H126.853V118.12C126.853 117.427 126.672 116.904 126.309 116.552C125.946 116.189 125.461 116.008 124.853 116.008C124.33 116.008 123.877 116.141 123.493 116.408C123.12 116.664 122.885 117.043 122.789 117.544H121.413C121.466 116.968 121.658 116.483 121.989 116.088C122.33 115.693 122.752 115.395 123.253 115.192C123.754 114.979 124.288 114.872 124.853 114.872C125.962 114.872 126.794 115.171 127.349 115.768C127.914 116.355 128.197 117.139 128.197 118.12V123H126.997L126.917 121.576C126.693 122.024 126.362 122.408 125.925 122.728C125.498 123.037 124.922 123.192 124.197 123.192ZM124.405 122.056C124.917 122.056 125.354 121.923 125.717 121.656C126.09 121.389 126.373 121.043 126.565 120.616C126.757 120.189 126.853 119.741 126.853 119.272V119.256H124.821C124.032 119.256 123.472 119.395 123.141 119.672C122.821 119.939 122.661 120.275 122.661 120.68C122.661 121.096 122.81 121.432 123.109 121.688C123.418 121.933 123.85 122.056 124.405 122.056ZM130.213 123V115.064H131.429L131.541 116.584C131.787 116.061 132.16 115.645 132.661 115.336C133.163 115.027 133.781 114.872 134.517 114.872V116.28H134.149C133.68 116.28 133.248 116.365 132.853 116.536C132.459 116.696 132.144 116.973 131.909 117.368C131.675 117.763 131.557 118.307 131.557 119V123H130.213ZM139.329 123.192C138.54 123.192 137.846 123.011 137.249 122.648C136.662 122.285 136.204 121.789 135.873 121.16C135.553 120.531 135.393 119.816 135.393 119.016C135.393 118.216 135.558 117.507 135.889 116.888C136.22 116.259 136.678 115.768 137.265 115.416C137.852 115.053 138.545 114.872 139.345 114.872C139.996 114.872 140.572 115.005 141.073 115.272C141.574 115.539 141.964 115.912 142.241 116.392V111.48H143.585V123H142.369L142.241 121.688C141.985 122.072 141.617 122.419 141.137 122.728C140.657 123.037 140.054 123.192 139.329 123.192ZM139.473 122.024C140.006 122.024 140.476 121.901 140.881 121.656C141.297 121.4 141.617 121.048 141.841 120.6C142.076 120.152 142.193 119.629 142.193 119.032C142.193 118.435 142.076 117.912 141.841 117.464C141.617 117.016 141.297 116.669 140.881 116.424C140.476 116.168 140.006 116.04 139.473 116.04C138.95 116.04 138.481 116.168 138.065 116.424C137.66 116.669 137.34 117.016 137.105 117.464C136.881 117.912 136.769 118.435 136.769 119.032C136.769 119.629 136.881 120.152 137.105 120.6C137.34 121.048 137.66 121.4 138.065 121.656C138.481 121.901 138.95 122.024 139.473 122.024Z" fill="black"/>
<path d="M23.7 178.24C22.2867 178.24 21.0733 177.94 20.06 177.34C19.0467 176.727 18.2667 175.88 17.72 174.8C17.1733 173.707 16.9 172.447 16.9 171.02C16.9 169.593 17.1733 168.333 17.72 167.24C18.2667 166.147 19.0467 165.293 20.06 164.68C21.0733 164.067 22.2867 163.76 23.7 163.76C25.38 163.76 26.7533 164.18 27.82 165.02C28.9 165.847 29.5733 167.013 29.84 168.52H27.02C26.8467 167.76 26.4733 167.167 25.9 166.74C25.34 166.3 24.5933 166.08 23.66 166.08C22.3667 166.08 21.3533 166.52 20.62 167.4C19.8867 168.28 19.52 169.487 19.52 171.02C19.52 172.553 19.8867 173.76 20.62 174.64C21.3533 175.507 22.3667 175.94 23.66 175.94C24.5933 175.94 25.34 175.74 25.9 175.34C26.4733 174.927 26.8467 174.36 27.02 173.64H29.84C29.5733 175.08 28.9 176.207 27.82 177.02C26.7533 177.833 25.38 178.24 23.7 178.24ZM35.4661 178.24C34.6128 178.24 33.9128 178.107 33.3661 177.84C32.8194 177.56 32.4128 177.193 32.1461 176.74C31.8794 176.287 31.7461 175.787 31.7461 175.24C31.7461 174.32 32.1061 173.573 32.8261 173C33.5461 172.427 34.6261 172.14 36.0661 172.14H38.5861V171.9C38.5861 171.22 38.3928 170.72 38.0061 170.4C37.6194 170.08 37.1394 169.92 36.5661 169.92C36.0461 169.92 35.5928 170.047 35.2061 170.3C34.8194 170.54 34.5794 170.9 34.4861 171.38H31.9861C32.0528 170.66 32.2928 170.033 32.7061 169.5C33.1328 168.967 33.6794 168.56 34.3461 168.28C35.0128 167.987 35.7594 167.84 36.5861 167.84C37.9994 167.84 39.1128 168.193 39.9261 168.9C40.7394 169.607 41.1461 170.607 41.1461 171.9V178H38.9661L38.7261 176.4C38.4328 176.933 38.0194 177.373 37.4861 177.72C36.9661 178.067 36.2928 178.24 35.4661 178.24ZM36.0461 176.24C36.7794 176.24 37.3461 176 37.7461 175.52C38.1594 175.04 38.4194 174.447 38.5261 173.74H36.3461C35.6661 173.74 35.1794 173.867 34.8861 174.12C34.5928 174.36 34.4461 174.66 34.4461 175.02C34.4461 175.407 34.5928 175.707 34.8861 175.92C35.1794 176.133 35.5661 176.24 36.0461 176.24ZM47.8723 178C46.8323 178 45.999 177.747 45.3723 177.24C44.7457 176.733 44.4323 175.833 44.4323 174.54V170.22H42.7323V168.08H44.4323L44.7323 165.42H46.9923V168.08H49.6723V170.22H46.9923V174.56C46.9923 175.04 47.0923 175.373 47.2923 175.56C47.5057 175.733 47.8657 175.82 48.3723 175.82H49.6123V178H47.8723ZM56.4364 178.24C55.4364 178.24 54.5497 178.027 53.7764 177.6C53.0031 177.173 52.3964 176.573 51.9564 175.8C51.5164 175.027 51.2964 174.133 51.2964 173.12C51.2964 172.093 51.5097 171.18 51.9364 170.38C52.3764 169.58 52.9764 168.96 53.7364 168.52C54.5097 168.067 55.4164 167.84 56.4564 167.84C57.4297 167.84 58.2897 168.053 59.0364 168.48C59.7831 168.907 60.3631 169.493 60.7764 170.24C61.2031 170.973 61.4164 171.793 61.4164 172.7C61.4164 172.847 61.4097 173 61.3964 173.16C61.3964 173.32 61.3897 173.487 61.3764 173.66H53.8364C53.8897 174.433 54.1564 175.04 54.6364 175.48C55.1297 175.92 55.7231 176.14 56.4164 176.14C56.9364 176.14 57.3697 176.027 57.7164 175.8C58.0764 175.56 58.3431 175.253 58.5164 174.88H61.1164C60.9297 175.507 60.6164 176.08 60.1764 176.6C59.7497 177.107 59.2164 177.507 58.5764 177.8C57.9497 178.093 57.2364 178.24 56.4364 178.24ZM56.4564 169.92C55.8297 169.92 55.2764 170.1 54.7964 170.46C54.3164 170.807 54.0097 171.34 53.8764 172.06H58.8164C58.7764 171.407 58.5364 170.887 58.0964 170.5C57.6564 170.113 57.1097 169.92 56.4564 169.92ZM67.5547 175.04C67.0747 175.04 66.628 174.987 66.2147 174.88L65.4747 175.62C65.7014 175.74 66.008 175.84 66.3947 175.92C66.7814 176 67.408 176.08 68.2747 176.16C69.5947 176.28 70.5547 176.593 71.1547 177.1C71.7547 177.607 72.0547 178.307 72.0547 179.2C72.0547 179.787 71.8947 180.34 71.5747 180.86C71.2547 181.393 70.7614 181.82 70.0947 182.14C69.428 182.473 68.5747 182.64 67.5347 182.64C66.1214 182.64 64.9814 182.373 64.1147 181.84C63.248 181.32 62.8147 180.533 62.8147 179.48C62.8147 178.587 63.248 177.813 64.1147 177.16C63.848 177.04 63.6147 176.913 63.4147 176.78C63.228 176.647 63.0614 176.507 62.9147 176.36V175.9L64.6547 174.06C63.8814 173.38 63.4947 172.507 63.4947 171.44C63.4947 170.773 63.6547 170.167 63.9747 169.62C64.308 169.073 64.7747 168.64 65.3747 168.32C65.9747 168 66.7014 167.84 67.5547 167.84C68.1147 167.84 68.6347 167.92 69.1147 168.08H72.8747V169.64L71.1747 169.76C71.4414 170.267 71.5747 170.827 71.5747 171.44C71.5747 172.107 71.4147 172.713 71.0947 173.26C70.7747 173.807 70.308 174.24 69.6947 174.56C69.0947 174.88 68.3814 175.04 67.5547 175.04ZM67.5547 173.08C68.0747 173.08 68.5014 172.94 68.8347 172.66C69.1814 172.38 69.3547 171.98 69.3547 171.46C69.3547 170.94 69.1814 170.54 68.8347 170.26C68.5014 169.98 68.0747 169.84 67.5547 169.84C67.008 169.84 66.568 169.98 66.2347 170.26C65.9014 170.54 65.7347 170.94 65.7347 171.46C65.7347 171.98 65.9014 172.38 66.2347 172.66C66.568 172.94 67.008 173.08 67.5547 173.08ZM65.1547 179.22C65.1547 179.713 65.3814 180.08 65.8347 180.32C66.3014 180.573 66.868 180.7 67.5347 180.7C68.1747 180.7 68.6947 180.567 69.0947 180.3C69.4947 180.047 69.6947 179.7 69.6947 179.26C69.6947 178.9 69.5614 178.6 69.2947 178.36C69.0414 178.12 68.528 177.973 67.7547 177.92C67.208 177.88 66.7014 177.82 66.2347 177.74C65.848 177.953 65.568 178.187 65.3947 178.44C65.2347 178.693 65.1547 178.953 65.1547 179.22ZM79.1108 178.24C78.1508 178.24 77.2841 178.02 76.5108 177.58C75.7508 177.14 75.1441 176.533 74.6908 175.76C74.2508 174.973 74.0308 174.067 74.0308 173.04C74.0308 172.013 74.2574 171.113 74.7108 170.34C75.1641 169.553 75.7708 168.94 76.5308 168.5C77.3041 168.06 78.1708 167.84 79.1308 167.84C80.0774 167.84 80.9308 168.06 81.6908 168.5C82.4641 168.94 83.0708 169.553 83.5108 170.34C83.9641 171.113 84.1908 172.013 84.1908 173.04C84.1908 174.067 83.9641 174.973 83.5108 175.76C83.0708 176.533 82.4641 177.14 81.6908 177.58C80.9174 178.02 80.0574 178.24 79.1108 178.24ZM79.1108 176.02C79.7774 176.02 80.3574 175.773 80.8508 175.28C81.3441 174.773 81.5908 174.027 81.5908 173.04C81.5908 172.053 81.3441 171.313 80.8508 170.82C80.3574 170.313 79.7841 170.06 79.1308 170.06C78.4508 170.06 77.8641 170.313 77.3708 170.82C76.8908 171.313 76.6508 172.053 76.6508 173.04C76.6508 174.027 76.8908 174.773 77.3708 175.28C77.8641 175.773 78.4441 176.02 79.1108 176.02ZM86.4797 178V168.08H88.7597L88.9997 169.94C89.3597 169.3 89.8464 168.793 90.4597 168.42C91.0864 168.033 91.8197 167.84 92.6597 167.84V170.54H91.9397C91.3797 170.54 90.8797 170.627 90.4397 170.8C89.9997 170.973 89.653 171.273 89.3997 171.7C89.1597 172.127 89.0397 172.72 89.0397 173.48V178H86.4797ZM95.7894 166.54C95.3227 166.54 94.936 166.4 94.6294 166.12C94.336 165.84 94.1894 165.487 94.1894 165.06C94.1894 164.633 94.336 164.287 94.6294 164.02C94.936 163.74 95.3227 163.6 95.7894 163.6C96.256 163.6 96.636 163.74 96.9294 164.02C97.236 164.287 97.3894 164.633 97.3894 165.06C97.3894 165.487 97.236 165.84 96.9294 166.12C96.636 166.4 96.256 166.54 95.7894 166.54ZM94.5094 178V168.08H97.0694V178H94.5094ZM104.561 178.24C103.561 178.24 102.675 178.027 101.901 177.6C101.128 177.173 100.521 176.573 100.081 175.8C99.6414 175.027 99.4214 174.133 99.4214 173.12C99.4214 172.093 99.6347 171.18 100.061 170.38C100.501 169.58 101.101 168.96 101.861 168.52C102.635 168.067 103.541 167.84 104.581 167.84C105.555 167.84 106.415 168.053 107.161 168.48C107.908 168.907 108.488 169.493 108.901 170.24C109.328 170.973 109.541 171.793 109.541 172.7C109.541 172.847 109.535 173 109.521 173.16C109.521 173.32 109.515 173.487 109.501 173.66H101.961C102.015 174.433 102.281 175.04 102.761 175.48C103.255 175.92 103.848 176.14 104.541 176.14C105.061 176.14 105.495 176.027 105.841 175.8C106.201 175.56 106.468 175.253 106.641 174.88H109.241C109.055 175.507 108.741 176.08 108.301 176.6C107.875 177.107 107.341 177.507 106.701 177.8C106.075 178.093 105.361 178.24 104.561 178.24ZM104.581 169.92C103.955 169.92 103.401 170.1 102.921 170.46C102.441 170.807 102.135 171.34 102.001 172.06H106.941C106.901 171.407 106.661 170.887 106.221 170.5C105.781 170.113 105.235 169.92 104.581 169.92ZM115.795 178.24C114.915 178.24 114.141 178.1 113.475 177.82C112.808 177.527 112.275 177.127 111.875 176.62C111.475 176.113 111.235 175.527 111.155 174.86H113.735C113.815 175.247 114.028 175.58 114.375 175.86C114.735 176.127 115.195 176.26 115.755 176.26C116.315 176.26 116.721 176.147 116.975 175.92C117.241 175.693 117.375 175.433 117.375 175.14C117.375 174.713 117.188 174.427 116.815 174.28C116.441 174.12 115.921 173.967 115.255 173.82C114.828 173.727 114.395 173.613 113.955 173.48C113.515 173.347 113.108 173.18 112.735 172.98C112.375 172.767 112.081 172.5 111.855 172.18C111.628 171.847 111.515 171.44 111.515 170.96C111.515 170.08 111.861 169.34 112.555 168.74C113.261 168.14 114.248 167.84 115.515 167.84C116.688 167.84 117.621 168.113 118.315 168.66C119.021 169.207 119.441 169.96 119.575 170.92H117.155C117.008 170.187 116.455 169.82 115.495 169.82C115.015 169.82 114.641 169.913 114.375 170.1C114.121 170.287 113.995 170.52 113.995 170.8C113.995 171.093 114.188 171.327 114.575 171.5C114.961 171.673 115.475 171.833 116.115 171.98C116.808 172.14 117.441 172.32 118.015 172.52C118.601 172.707 119.068 172.993 119.415 173.38C119.761 173.753 119.935 174.293 119.935 175C119.948 175.613 119.788 176.167 119.455 176.66C119.121 177.153 118.641 177.54 118.015 177.82C117.388 178.1 116.648 178.24 115.795 178.24Z" fill="black"/>
<path d="M23.368 59.288C22.136 59.288 21.048 59.08 20.104 58.664C19.16 58.232 18.416 57.624 17.872 56.84C17.328 56.04 17.048 55.072 17.032 53.936H20.272C20.304 54.72 20.584 55.384 21.112 55.928C21.656 56.456 22.4 56.72 23.344 56.72C24.16 56.72 24.808 56.528 25.288 56.144C25.768 55.744 26.008 55.216 26.008 54.56C26.008 53.872 25.792 53.336 25.36 52.952C24.944 52.568 24.384 52.256 23.68 52.016C22.976 51.776 22.224 51.52 21.424 51.248C20.128 50.8 19.136 50.224 18.448 49.52C17.776 48.816 17.44 47.88 17.44 46.712C17.424 45.72 17.656 44.872 18.136 44.168C18.632 43.448 19.304 42.896 20.152 42.512C21 42.112 21.976 41.912 23.08 41.912C24.2 41.912 25.184 42.112 26.032 42.512C26.896 42.912 27.568 43.472 28.048 44.192C28.544 44.912 28.808 45.768 28.84 46.76H25.552C25.536 46.168 25.304 45.648 24.856 45.2C24.424 44.736 23.816 44.504 23.032 44.504C22.36 44.488 21.792 44.656 21.328 45.008C20.88 45.344 20.656 45.84 20.656 46.496C20.656 47.056 20.832 47.504 21.184 47.84C21.536 48.16 22.016 48.432 22.624 48.656C23.232 48.88 23.928 49.12 24.712 49.376C25.544 49.664 26.304 50 26.992 50.384C27.68 50.768 28.232 51.28 28.648 51.92C29.064 52.544 29.272 53.352 29.272 54.344C29.272 55.224 29.048 56.04 28.6 56.792C28.152 57.544 27.488 58.152 26.608 58.616C25.728 59.064 24.648 59.288 23.368 59.288ZM35.6534 59V44.672H30.7574V42.2H43.6454V44.672H38.7254V59H35.6534ZM50.2651 59V53.024L44.6251 42.2H48.1051L51.8251 49.952L55.5211 42.2H58.9531L53.3371 53.024V59H50.2651ZM60.9211 59V42.2H63.9931V56.6H71.4331V59H60.9211ZM74.1398 59V42.2H77.2118V59H74.1398ZM86.2039 59.288C84.9719 59.288 83.8839 59.08 82.9399 58.664C81.9959 58.232 81.2519 57.624 80.7079 56.84C80.1639 56.04 79.8839 55.072 79.8679 53.936H83.1079C83.1399 54.72 83.4199 55.384 83.9479 55.928C84.4919 56.456 85.2359 56.72 86.1799 56.72C86.9959 56.72 87.6439 56.528 88.1239 56.144C88.6039 55.744 88.8439 55.216 88.8439 54.56C88.8439 53.872 88.6279 53.336 88.1959 52.952C87.7799 52.568 87.2199 52.256 86.5159 52.016C85.8119 51.776 85.0599 51.52 84.2599 51.248C82.9639 50.8 81.9719 50.224 81.2839 49.52C80.6119 48.816 80.2759 47.88 80.2759 46.712C80.2599 45.72 80.4919 44.872 80.9719 44.168C81.4679 43.448 82.1399 42.896 82.9879 42.512C83.8359 42.112 84.8119 41.912 85.9159 41.912C87.0359 41.912 88.0199 42.112 88.8679 42.512C89.7319 42.912 90.4039 43.472 90.8839 44.192C91.3799 44.912 91.6439 45.768 91.6759 46.76H88.3879C88.3719 46.168 88.1399 45.648 87.6919 45.2C87.2599 44.736 86.6519 44.504 85.8679 44.504C85.1959 44.488 84.6279 44.656 84.1639 45.008C83.7159 45.344 83.4919 45.84 83.4919 46.496C83.4919 47.056 83.6679 47.504 84.0199 47.84C84.3719 48.16 84.8519 48.432 85.4599 48.656C86.0679 48.88 86.7639 49.12 87.5479 49.376C88.3799 49.664 89.1399 50 89.8279 50.384C90.5159 50.768 91.0679 51.28 91.4839 51.92C91.8999 52.544 92.1079 53.352 92.1079 54.344C92.1079 55.224 91.8839 56.04 91.4359 56.792C90.9879 57.544 90.3239 58.152 89.4439 58.616C88.5639 59.064 87.4839 59.288 86.2039 59.288ZM94.7883 59V42.2H97.8603V49.184H105.396V42.2H108.468V59H105.396V51.68H97.8603V59H94.7883ZM117.596 59V42.2H123.5C124.684 42.2 125.66 42.392 126.428 42.776C127.212 43.144 127.796 43.656 128.18 44.312C128.564 44.952 128.756 45.672 128.756 46.472C128.756 47.56 128.46 48.416 127.868 49.04C127.292 49.664 126.596 50.096 125.78 50.336C126.404 50.448 126.972 50.696 127.484 51.08C127.996 51.464 128.396 51.944 128.684 52.52C128.988 53.096 129.14 53.728 129.14 54.416C129.14 55.264 128.932 56.04 128.516 56.744C128.1 57.432 127.484 57.984 126.668 58.4C125.852 58.8 124.86 59 123.692 59H117.596ZM119.612 49.544H123.356C124.428 49.544 125.252 49.296 125.828 48.8C126.404 48.288 126.692 47.584 126.692 46.688C126.692 45.84 126.404 45.16 125.828 44.648C125.268 44.136 124.42 43.88 123.284 43.88H119.612V49.544ZM119.612 57.32H123.476C124.628 57.32 125.516 57.056 126.14 56.528C126.764 55.984 127.076 55.232 127.076 54.272C127.076 53.328 126.748 52.576 126.092 52.016C125.436 51.44 124.548 51.152 123.428 51.152H119.612V57.32ZM139.666 59.288C138.018 59.288 136.57 58.928 135.322 58.208C134.09 57.472 133.122 56.448 132.418 55.136C131.73 53.824 131.386 52.312 131.386 50.6C131.386 48.888 131.73 47.384 132.418 46.088C133.122 44.776 134.09 43.752 135.322 43.016C136.57 42.28 138.018 41.912 139.666 41.912C141.33 41.912 142.778 42.28 144.01 43.016C145.258 43.752 146.226 44.776 146.914 46.088C147.602 47.384 147.946 48.888 147.946 50.6C147.946 52.312 147.602 53.824 146.914 55.136C146.226 56.448 145.258 57.472 144.01 58.208C142.778 58.928 141.33 59.288 139.666 59.288ZM139.666 57.512C140.898 57.512 141.978 57.24 142.906 56.696C143.85 56.136 144.578 55.344 145.09 54.32C145.618 53.28 145.882 52.04 145.882 50.6C145.882 49.16 145.618 47.928 145.09 46.904C144.578 45.88 143.85 45.096 142.906 44.552C141.978 43.992 140.898 43.712 139.666 43.712C138.434 43.712 137.346 43.992 136.402 44.552C135.474 45.096 134.746 45.88 134.218 46.904C133.706 47.928 133.45 49.16 133.45 50.6C133.45 52.04 133.706 53.28 134.218 54.32C134.746 55.344 135.474 56.136 136.402 56.696C137.346 57.24 138.434 57.512 139.666 57.512ZM153.923 59V43.856H148.907V42.2H160.955V43.856H155.939V59H153.923Z" fill="#173030"/>
<path d="M28.272 268.192C27.1733 268.192 26.208 267.952 25.376 267.472C24.5547 266.981 23.9093 266.299 23.44 265.424C22.9813 264.549 22.752 263.541 22.752 262.4C22.752 261.259 22.9813 260.256 23.44 259.392C23.9093 258.517 24.5547 257.835 25.376 257.344C26.208 256.853 27.1733 256.608 28.272 256.608C29.3813 256.608 30.3467 256.853 31.168 257.344C32 257.835 32.6453 258.517 33.104 259.392C33.5627 260.256 33.792 261.259 33.792 262.4C33.792 263.541 33.5627 264.549 33.104 265.424C32.6453 266.299 32 266.981 31.168 267.472C30.3467 267.952 29.3813 268.192 28.272 268.192ZM28.272 267.008C29.0933 267.008 29.8133 266.827 30.432 266.464C31.0613 266.091 31.5467 265.563 31.888 264.88C32.24 264.187 32.416 263.36 32.416 262.4C32.416 261.44 32.24 260.619 31.888 259.936C31.5467 259.253 31.0613 258.731 30.432 258.368C29.8133 257.995 29.0933 257.808 28.272 257.808C27.4507 257.808 26.7253 257.995 26.096 258.368C25.4773 258.731 24.992 259.253 24.64 259.936C24.2987 260.619 24.128 261.44 24.128 262.4C24.128 263.36 24.2987 264.187 24.64 264.88C24.992 265.563 25.4773 266.091 26.096 266.464C26.7253 266.827 27.4507 267.008 28.272 267.008ZM35.6509 268V260.064H36.8669L36.9789 261.584C37.2242 261.061 37.5975 260.645 38.0989 260.336C38.6002 260.027 39.2189 259.872 39.9549 259.872V261.28H39.5869C39.1175 261.28 38.6855 261.365 38.2909 261.536C37.8962 261.696 37.5815 261.973 37.3469 262.368C37.1122 262.763 36.9949 263.307 36.9949 264V268H35.6509ZM44.7665 268.192C43.9772 268.192 43.2838 268.011 42.6865 267.648C42.0998 267.285 41.6412 266.789 41.3105 266.16C40.9905 265.531 40.8305 264.816 40.8305 264.016C40.8305 263.216 40.9958 262.507 41.3265 261.888C41.6572 261.259 42.1158 260.768 42.7025 260.416C43.2892 260.053 43.9825 259.872 44.7825 259.872C45.4332 259.872 46.0092 260.005 46.5105 260.272C47.0118 260.539 47.4012 260.912 47.6785 261.392V256.48H49.0225V268H47.8065L47.6785 266.688C47.4225 267.072 47.0545 267.419 46.5745 267.728C46.0945 268.037 45.4918 268.192 44.7665 268.192ZM44.9105 267.024C45.4438 267.024 45.9132 266.901 46.3185 266.656C46.7345 266.4 47.0545 266.048 47.2785 265.6C47.5132 265.152 47.6305 264.629 47.6305 264.032C47.6305 263.435 47.5132 262.912 47.2785 262.464C47.0545 262.016 46.7345 261.669 46.3185 261.424C45.9132 261.168 45.4438 261.04 44.9105 261.04C44.3878 261.04 43.9185 261.168 43.5025 261.424C43.0972 261.669 42.7772 262.016 42.5425 262.464C42.3185 262.912 42.2065 263.435 42.2065 264.032C42.2065 264.629 42.3185 265.152 42.5425 265.6C42.7772 266.048 43.0972 266.4 43.5025 266.656C43.9185 266.901 44.3878 267.024 44.9105 267.024ZM54.7814 268.192C54.024 268.192 53.352 268.021 52.7654 267.68C52.1787 267.328 51.7147 266.843 51.3734 266.224C51.0427 265.605 50.8774 264.875 50.8774 264.032C50.8774 263.2 51.0427 262.475 51.3734 261.856C51.704 261.227 52.1627 260.741 52.7494 260.4C53.3467 260.048 54.0347 259.872 54.8134 259.872C55.5814 259.872 56.2427 260.048 56.7974 260.4C57.3627 260.741 57.7947 261.195 58.0934 261.76C58.392 262.325 58.5414 262.933 58.5414 263.584C58.5414 263.701 58.536 263.819 58.5254 263.936C58.5254 264.053 58.5254 264.187 58.5254 264.336H52.2054C52.2374 264.944 52.376 265.451 52.6214 265.856C52.8774 266.251 53.192 266.549 53.5654 266.752C53.9494 266.955 54.3547 267.056 54.7814 267.056C55.336 267.056 55.8 266.928 56.1734 266.672C56.5467 266.416 56.8187 266.069 56.9894 265.632H58.3174C58.104 266.368 57.6934 266.981 57.0854 267.472C56.488 267.952 55.72 268.192 54.7814 268.192ZM54.7814 261.008C54.1414 261.008 53.5707 261.205 53.0694 261.6C52.5787 261.984 52.296 262.549 52.2214 263.296H57.2134C57.1814 262.581 56.936 262.021 56.4774 261.616C56.0187 261.211 55.4534 261.008 54.7814 261.008ZM60.3228 268V260.064H61.5388L61.6508 261.584C61.8961 261.061 62.2694 260.645 62.7708 260.336C63.2721 260.027 63.8908 259.872 64.6268 259.872V261.28H64.2588C63.7894 261.28 63.3574 261.365 62.9628 261.536C62.5681 261.696 62.2534 261.973 62.0188 262.368C61.7841 262.763 61.6668 263.307 61.6668 264V268H60.3228ZM69.1753 268.192C68.2259 268.192 67.4366 267.952 66.8073 267.472C66.1779 266.992 65.8099 266.341 65.7033 265.52H67.0793C67.1646 265.936 67.3833 266.299 67.7353 266.608C68.0979 266.907 68.5833 267.056 69.1913 267.056C69.7566 267.056 70.1726 266.939 70.4393 266.704C70.7059 266.459 70.8393 266.171 70.8393 265.84C70.8393 265.36 70.6633 265.04 70.3113 264.88C69.9699 264.72 69.4846 264.576 68.8553 264.448C68.4286 264.363 68.0019 264.24 67.5753 264.08C67.1486 263.92 66.7913 263.696 66.5033 263.408C66.2153 263.109 66.0713 262.72 66.0713 262.24C66.0713 261.547 66.3273 260.981 66.8393 260.544C67.3619 260.096 68.0659 259.872 68.9513 259.872C69.7939 259.872 70.4819 260.085 71.0153 260.512C71.5593 260.928 71.8739 261.525 71.9593 262.304H70.6313C70.5779 261.899 70.4019 261.584 70.1033 261.36C69.8153 261.125 69.4259 261.008 68.9353 261.008C68.4553 261.008 68.0819 261.109 67.8153 261.312C67.5593 261.515 67.4313 261.781 67.4313 262.112C67.4313 262.432 67.5966 262.683 67.9273 262.864C68.2686 263.045 68.7273 263.2 69.3033 263.328C69.7939 263.435 70.2579 263.568 70.6953 263.728C71.1433 263.877 71.5059 264.107 71.7833 264.416C72.0713 264.715 72.2153 265.152 72.2153 265.728C72.2259 266.443 71.9539 267.035 71.3993 267.504C70.8553 267.963 70.1139 268.192 69.1753 268.192ZM81.7616 268.192C80.9936 268.192 80.3163 268.053 79.7296 267.776C79.1536 267.488 78.7003 267.093 78.3696 266.592C78.0496 266.08 77.8896 265.477 77.8896 264.784C77.8896 264.027 78.1083 263.355 78.5456 262.768C78.9936 262.171 79.639 261.701 80.4816 261.36C80.119 260.965 79.8576 260.592 79.6976 260.24C79.5376 259.877 79.4576 259.488 79.4576 259.072C79.4576 258.357 79.7083 257.771 80.2096 257.312C80.7216 256.843 81.4203 256.608 82.3056 256.608C82.8816 256.608 83.383 256.72 83.8096 256.944C84.2363 257.157 84.567 257.456 84.8016 257.84C85.0363 258.224 85.143 258.661 85.1216 259.152H83.7936C83.8043 258.672 83.655 258.309 83.3456 258.064C83.047 257.819 82.7003 257.696 82.3056 257.696C81.8256 257.696 81.4523 257.824 81.1856 258.08C80.919 258.336 80.7856 258.661 80.7856 259.056C80.7856 259.397 80.8763 259.728 81.0576 260.048C81.2496 260.368 81.5323 260.725 81.9056 261.12L85.4416 264.688C85.751 264.24 86.087 263.701 86.4496 263.072L86.9456 262.208H88.3696L87.6656 263.456C87.1963 264.299 86.7483 265.003 86.3216 265.568L88.7376 268H87.0416L85.5536 266.496C84.9883 267.104 84.4016 267.541 83.7936 267.808C83.1856 268.064 82.5083 268.192 81.7616 268.192ZM79.2336 264.736C79.2336 265.397 79.4683 265.947 79.9376 266.384C80.407 266.821 81.0203 267.04 81.7776 267.04C82.343 267.04 82.855 266.933 83.3136 266.72C83.783 266.496 84.2416 266.133 84.6896 265.632L81.2976 262.192C80.5936 262.469 80.071 262.821 79.7296 263.248C79.399 263.675 79.2336 264.171 79.2336 264.736ZM97.9708 268.192C97.1494 268.192 96.4348 268.043 95.8268 267.744C95.2188 267.445 94.7494 267.029 94.4188 266.496C94.0881 265.963 93.9228 265.344 93.9228 264.64H95.3307C95.3307 265.077 95.4321 265.483 95.6348 265.856C95.8374 266.219 96.1308 266.512 96.5148 266.736C96.9094 266.949 97.3948 267.056 97.9708 267.056C98.7281 267.056 99.3148 266.875 99.7308 266.512C100.147 266.149 100.355 265.696 100.355 265.152C100.355 264.704 100.259 264.347 100.067 264.08C99.8748 263.803 99.6134 263.579 99.2828 263.408C98.9628 263.237 98.5894 263.088 98.1628 262.96C97.7468 262.832 97.3094 262.688 96.8508 262.528C95.9868 262.229 95.3468 261.861 94.9308 261.424C94.5148 260.976 94.3068 260.395 94.3068 259.68C94.2961 259.083 94.4348 258.555 94.7228 258.096C95.0108 257.627 95.4161 257.264 95.9388 257.008C96.4721 256.741 97.1014 256.608 97.8268 256.608C98.5414 256.608 99.1601 256.741 99.6828 257.008C100.216 257.275 100.627 257.643 100.915 258.112C101.213 258.581 101.368 259.115 101.379 259.712H99.9708C99.9708 259.403 99.8908 259.099 99.7308 258.8C99.5708 258.491 99.3254 258.24 98.9948 258.048C98.6748 257.856 98.2694 257.76 97.7788 257.76C97.1708 257.749 96.6694 257.904 96.2748 258.224C95.8908 258.544 95.6988 258.987 95.6988 259.552C95.6988 260.032 95.8321 260.4 96.0988 260.656C96.3761 260.912 96.7601 261.125 97.2508 261.296C97.7414 261.456 98.3068 261.643 98.9468 261.856C99.4801 262.048 99.9601 262.272 100.387 262.528C100.813 262.784 101.144 263.115 101.379 263.52C101.624 263.925 101.747 264.443 101.747 265.072C101.747 265.605 101.608 266.112 101.331 266.592C101.053 267.061 100.632 267.445 100.067 267.744C99.5121 268.043 98.8134 268.192 97.9708 268.192ZM106.709 268C105.983 268 105.413 267.824 104.997 267.472C104.581 267.12 104.373 266.485 104.373 265.568V261.2H102.997V260.064H104.373L104.549 258.16H105.717V260.064H108.053V261.2H105.717V265.568C105.717 266.069 105.818 266.411 106.021 266.592C106.223 266.763 106.581 266.848 107.093 266.848H107.925V268H106.709ZM112.4 268.192C111.739 268.192 111.19 268.08 110.752 267.856C110.315 267.632 109.99 267.333 109.776 266.96C109.563 266.587 109.456 266.181 109.456 265.744C109.456 264.933 109.766 264.309 110.384 263.872C111.003 263.435 111.846 263.216 112.912 263.216H115.056V263.12C115.056 262.427 114.875 261.904 114.512 261.552C114.15 261.189 113.664 261.008 113.056 261.008C112.534 261.008 112.08 261.141 111.696 261.408C111.323 261.664 111.088 262.043 110.992 262.544H109.616C109.67 261.968 109.862 261.483 110.192 261.088C110.534 260.693 110.955 260.395 111.456 260.192C111.958 259.979 112.491 259.872 113.056 259.872C114.166 259.872 114.998 260.171 115.552 260.768C116.118 261.355 116.4 262.139 116.4 263.12V268H115.2L115.12 266.576C114.896 267.024 114.566 267.408 114.128 267.728C113.702 268.037 113.126 268.192 112.4 268.192ZM112.608 267.056C113.12 267.056 113.558 266.923 113.92 266.656C114.294 266.389 114.576 266.043 114.768 265.616C114.96 265.189 115.056 264.741 115.056 264.272V264.256H113.024C112.235 264.256 111.675 264.395 111.344 264.672C111.024 264.939 110.864 265.275 110.864 265.68C110.864 266.096 111.014 266.432 111.312 266.688C111.622 266.933 112.054 267.056 112.608 267.056ZM121.334 268C120.608 268 120.038 267.824 119.622 267.472C119.206 267.12 118.998 266.485 118.998 265.568V261.2H117.622V260.064H118.998L119.174 258.16H120.342V260.064H122.678V261.2H120.342V265.568C120.342 266.069 120.443 266.411 120.646 266.592C120.848 266.763 121.206 266.848 121.718 266.848H122.55V268H121.334ZM127.281 268.192C126.343 268.192 125.596 267.909 125.041 267.344C124.487 266.768 124.209 265.888 124.209 264.704V260.064H125.553V264.56C125.553 266.213 126.231 267.04 127.585 267.04C128.279 267.04 128.849 266.795 129.297 266.304C129.756 265.803 129.985 265.093 129.985 264.176V260.064H131.329V268H130.113L130.017 266.576C129.772 267.077 129.404 267.472 128.913 267.76C128.433 268.048 127.889 268.192 127.281 268.192ZM136.582 268.192C135.632 268.192 134.843 267.952 134.214 267.472C133.584 266.992 133.216 266.341 133.11 265.52H134.486C134.571 265.936 134.79 266.299 135.142 266.608C135.504 266.907 135.99 267.056 136.598 267.056C137.163 267.056 137.579 266.939 137.846 266.704C138.112 266.459 138.246 266.171 138.246 265.84C138.246 265.36 138.07 265.04 137.718 264.88C137.376 264.72 136.891 264.576 136.262 264.448C135.835 264.363 135.408 264.24 134.982 264.08C134.555 263.92 134.198 263.696 133.91 263.408C133.622 263.109 133.478 262.72 133.478 262.24C133.478 261.547 133.734 260.981 134.246 260.544C134.768 260.096 135.472 259.872 136.358 259.872C137.2 259.872 137.888 260.085 138.422 260.512C138.966 260.928 139.28 261.525 139.366 262.304H138.038C137.984 261.899 137.808 261.584 137.51 261.36C137.222 261.125 136.832 261.008 136.342 261.008C135.862 261.008 135.488 261.109 135.222 261.312C134.966 261.515 134.838 261.781 134.838 262.112C134.838 262.432 135.003 262.683 135.334 262.864C135.675 263.045 136.134 263.2 136.71 263.328C137.2 263.435 137.664 263.568 138.102 263.728C138.55 263.877 138.912 264.107 139.19 264.416C139.478 264.715 139.622 265.152 139.622 265.728C139.632 266.443 139.36 267.035 138.806 267.504C138.262 267.963 137.52 268.192 136.582 268.192Z" fill="black"/>
<path d="M26.752 356.192C25.9307 356.192 25.216 356.043 24.608 355.744C24 355.445 23.5307 355.029 23.2 354.496C22.8693 353.963 22.704 353.344 22.704 352.64H24.112C24.112 353.077 24.2133 353.483 24.416 353.856C24.6187 354.219 24.912 354.512 25.296 354.736C25.6907 354.949 26.176 355.056 26.752 355.056C27.5093 355.056 28.096 354.875 28.512 354.512C28.928 354.149 29.136 353.696 29.136 353.152C29.136 352.704 29.04 352.347 28.848 352.08C28.656 351.803 28.3947 351.579 28.064 351.408C27.744 351.237 27.3707 351.088 26.944 350.96C26.528 350.832 26.0907 350.688 25.632 350.528C24.768 350.229 24.128 349.861 23.712 349.424C23.296 348.976 23.088 348.395 23.088 347.68C23.0773 347.083 23.216 346.555 23.504 346.096C23.792 345.627 24.1973 345.264 24.72 345.008C25.2533 344.741 25.8827 344.608 26.608 344.608C27.3227 344.608 27.9413 344.741 28.464 345.008C28.9973 345.275 29.408 345.643 29.696 346.112C29.9947 346.581 30.1493 347.115 30.16 347.712H28.752C28.752 347.403 28.672 347.099 28.512 346.8C28.352 346.491 28.1067 346.24 27.776 346.048C27.456 345.856 27.0507 345.76 26.56 345.76C25.952 345.749 25.4507 345.904 25.056 346.224C24.672 346.544 24.48 346.987 24.48 347.552C24.48 348.032 24.6133 348.4 24.88 348.656C25.1573 348.912 25.5413 349.125 26.032 349.296C26.5227 349.456 27.088 349.643 27.728 349.856C28.2613 350.048 28.7413 350.272 29.168 350.528C29.5947 350.784 29.9253 351.115 30.16 351.52C30.4053 351.925 30.528 352.443 30.528 353.072C30.528 353.605 30.3893 354.112 30.112 354.592C29.8347 355.061 29.4133 355.445 28.848 355.744C28.2933 356.043 27.5947 356.192 26.752 356.192ZM32.354 356V344.48H33.698V349.424C33.9647 348.933 34.3433 348.555 34.834 348.288C35.3247 348.011 35.858 347.872 36.434 347.872C37.3513 347.872 38.0873 348.16 38.642 348.736C39.1967 349.301 39.474 350.176 39.474 351.36V356H38.146V351.504C38.146 349.851 37.4793 349.024 36.146 349.024C35.4527 349.024 34.8713 349.275 34.402 349.776C33.9327 350.267 33.698 350.971 33.698 351.888V356H32.354ZM42.3263 346.304C42.0596 346.304 41.8356 346.219 41.6543 346.048C41.4836 345.867 41.3983 345.643 41.3983 345.376C41.3983 345.12 41.4836 344.907 41.6543 344.736C41.8356 344.565 42.0596 344.48 42.3263 344.48C42.5823 344.48 42.8009 344.565 42.9823 344.736C43.1636 344.907 43.2543 345.12 43.2543 345.376C43.2543 345.643 43.1636 345.867 42.9823 346.048C42.8009 346.219 42.5823 346.304 42.3263 346.304ZM41.6543 356V348.064H42.9983V356H41.6543ZM45.3384 359.52V348.064H46.5544L46.6824 349.376C46.9384 348.992 47.301 348.645 47.7704 348.336C48.2504 348.027 48.8584 347.872 49.5944 347.872C50.3837 347.872 51.0717 348.053 51.6584 348.416C52.245 348.779 52.6984 349.275 53.0184 349.904C53.349 350.533 53.5144 351.248 53.5144 352.048C53.5144 352.848 53.349 353.563 53.0184 354.192C52.6984 354.811 52.2397 355.301 51.6424 355.664C51.0557 356.016 50.3677 356.192 49.5784 356.192C48.9277 356.192 48.3464 356.059 47.8344 355.792C47.333 355.525 46.949 355.152 46.6824 354.672V359.52H45.3384ZM49.4344 355.024C49.9677 355.024 50.437 354.901 50.8424 354.656C51.2477 354.4 51.5677 354.048 51.8024 353.6C52.037 353.152 52.1544 352.629 52.1544 352.032C52.1544 351.435 52.037 350.912 51.8024 350.464C51.5677 350.016 51.2477 349.669 50.8424 349.424C50.437 349.168 49.9677 349.04 49.4344 349.04C48.901 349.04 48.4317 349.168 48.0264 349.424C47.621 349.669 47.301 350.016 47.0664 350.464C46.8317 350.912 46.7144 351.435 46.7144 352.032C46.7144 352.629 46.8317 353.152 47.0664 353.6C47.301 354.048 47.621 354.4 48.0264 354.656C48.4317 354.901 48.901 355.024 49.4344 355.024ZM55.3853 359.52V348.064H56.6013L56.7293 349.376C56.9853 348.992 57.3479 348.645 57.8173 348.336C58.2973 348.027 58.9053 347.872 59.6413 347.872C60.4306 347.872 61.1186 348.053 61.7053 348.416C62.2919 348.779 62.7453 349.275 63.0653 349.904C63.3959 350.533 63.5613 351.248 63.5613 352.048C63.5613 352.848 63.3959 353.563 63.0653 354.192C62.7453 354.811 62.2866 355.301 61.6893 355.664C61.1026 356.016 60.4146 356.192 59.6253 356.192C58.9746 356.192 58.3933 356.059 57.8813 355.792C57.3799 355.525 56.9959 355.152 56.7293 354.672V359.52H55.3853ZM59.4813 355.024C60.0146 355.024 60.4839 354.901 60.8893 354.656C61.2946 354.4 61.6146 354.048 61.8493 353.6C62.0839 353.152 62.2013 352.629 62.2013 352.032C62.2013 351.435 62.0839 350.912 61.8493 350.464C61.6146 350.016 61.2946 349.669 60.8893 349.424C60.4839 349.168 60.0146 349.04 59.4813 349.04C58.9479 349.04 58.4786 349.168 58.0733 349.424C57.6679 349.669 57.3479 350.016 57.1133 350.464C56.8786 350.912 56.7613 351.435 56.7613 352.032C56.7613 352.629 56.8786 353.152 57.1133 353.6C57.3479 354.048 57.6679 354.4 58.0733 354.656C58.4786 354.901 58.9479 355.024 59.4813 355.024ZM66.2481 346.304C65.9815 346.304 65.7575 346.219 65.5761 346.048C65.4055 345.867 65.3201 345.643 65.3201 345.376C65.3201 345.12 65.4055 344.907 65.5761 344.736C65.7575 344.565 65.9815 344.48 66.2481 344.48C66.5041 344.48 66.7228 344.565 66.9041 344.736C67.0855 344.907 67.1761 345.12 67.1761 345.376C67.1761 345.643 67.0855 345.867 66.9041 346.048C66.7228 346.219 66.5041 346.304 66.2481 346.304ZM65.5761 356V348.064H66.9201V356H65.5761ZM69.2603 356V348.064H70.4763L70.5563 349.488C70.8123 348.987 71.1803 348.592 71.6603 348.304C72.1403 348.016 72.6843 347.872 73.2923 347.872C74.2309 347.872 74.9776 348.16 75.5323 348.736C76.0976 349.301 76.3802 350.176 76.3802 351.36V356H75.0363V351.504C75.0363 349.851 74.3536 349.024 72.9883 349.024C72.3056 349.024 71.7349 349.275 71.2763 349.776C70.8283 350.267 70.6043 350.971 70.6043 351.888V356H69.2603ZM81.5525 353.504C81.1045 353.504 80.6938 353.445 80.3205 353.328L79.5205 354.08C79.6378 354.165 79.7818 354.24 79.9525 354.304C80.1338 354.357 80.3898 354.411 80.7205 354.464C81.0512 354.507 81.5152 354.555 82.1125 354.608C83.1792 354.683 83.9418 354.928 84.4005 355.344C84.8592 355.76 85.0885 356.304 85.0885 356.976C85.0885 357.435 84.9605 357.872 84.7045 358.288C84.4592 358.704 84.0752 359.045 83.5525 359.312C83.0405 359.579 82.3792 359.712 81.5685 359.712C80.8538 359.712 80.2192 359.616 79.6645 359.424C79.1098 359.243 78.6778 358.96 78.3685 358.576C78.0592 358.203 77.9045 357.728 77.9045 357.152C77.9045 356.853 77.9845 356.528 78.1445 356.176C78.3045 355.835 78.6032 355.509 79.0405 355.2C78.8058 355.104 78.6032 355.003 78.4325 354.896C78.2725 354.779 78.1232 354.651 77.9845 354.512V354.144L79.3445 352.8C78.7152 352.267 78.4005 351.563 78.4005 350.688C78.4005 350.165 78.5232 349.691 78.7685 349.264C79.0138 348.837 79.3712 348.501 79.8405 348.256C80.3098 348 80.8805 347.872 81.5525 347.872C82.0112 347.872 82.4272 347.936 82.8005 348.064H85.7285V349.072L84.2405 349.136C84.5498 349.584 84.7045 350.101 84.7045 350.688C84.7045 351.211 84.5765 351.685 84.3205 352.112C84.0752 352.539 83.7178 352.88 83.2485 353.136C82.7898 353.381 82.2245 353.504 81.5525 353.504ZM81.5525 352.4C82.1178 352.4 82.5658 352.256 82.8965 351.968C83.2378 351.669 83.4085 351.243 83.4085 350.688C83.4085 350.144 83.2378 349.728 82.8965 349.44C82.5658 349.141 82.1178 348.992 81.5525 348.992C80.9765 348.992 80.5178 349.141 80.1765 349.44C79.8458 349.728 79.6805 350.144 79.6805 350.688C79.6805 351.243 79.8458 351.669 80.1765 351.968C80.5178 352.256 80.9765 352.4 81.5525 352.4ZM79.2165 357.024C79.2165 357.557 79.4405 357.952 79.8885 358.208C80.3365 358.475 80.8965 358.608 81.5685 358.608C82.2298 358.608 82.7578 358.464 83.1525 358.176C83.5578 357.888 83.7605 357.504 83.7605 357.024C83.7605 356.683 83.6218 356.384 83.3445 356.128C83.0672 355.883 82.5552 355.739 81.8085 355.696C81.2218 355.653 80.7152 355.6 80.2885 355.536C79.8512 355.771 79.5632 356.021 79.4245 356.288C79.2858 356.565 79.2165 356.811 79.2165 357.024ZM94.871 356.192C94.103 356.192 93.4257 356.053 92.839 355.776C92.263 355.488 91.8097 355.093 91.479 354.592C91.159 354.08 90.999 353.477 90.999 352.784C90.999 352.027 91.2177 351.355 91.655 350.768C92.103 350.171 92.7483 349.701 93.591 349.36C93.2283 348.965 92.967 348.592 92.807 348.24C92.647 347.877 92.567 347.488 92.567 347.072C92.567 346.357 92.8177 345.771 93.319 345.312C93.831 344.843 94.5297 344.608 95.415 344.608C95.991 344.608 96.4923 344.72 96.919 344.944C97.3457 345.157 97.6763 345.456 97.911 345.84C98.1457 346.224 98.2523 346.661 98.231 347.152H96.903C96.9137 346.672 96.7643 346.309 96.455 346.064C96.1563 345.819 95.8097 345.696 95.415 345.696C94.935 345.696 94.5617 345.824 94.295 346.08C94.0283 346.336 93.895 346.661 93.895 347.056C93.895 347.397 93.9857 347.728 94.167 348.048C94.359 348.368 94.6417 348.725 95.015 349.12L98.551 352.688C98.8603 352.24 99.1963 351.701 99.559 351.072L100.055 350.208H101.479L100.775 351.456C100.306 352.299 99.8577 353.003 99.431 353.568L101.847 356H100.151L98.663 354.496C98.0977 355.104 97.511 355.541 96.903 355.808C96.295 356.064 95.6177 356.192 94.871 356.192ZM92.343 352.736C92.343 353.397 92.5777 353.947 93.047 354.384C93.5163 354.821 94.1297 355.04 94.887 355.04C95.4523 355.04 95.9643 354.933 96.423 354.72C96.8923 354.496 97.351 354.133 97.799 353.632L94.407 350.192C93.703 350.469 93.1803 350.821 92.839 351.248C92.5083 351.675 92.343 352.171 92.343 352.736ZM107.512 356V344.8H108.856V349.744H114.664V344.8H116.008V356H114.664V350.848H108.856V356H107.512ZM120.932 356.192C120.27 356.192 119.721 356.08 119.284 355.856C118.846 355.632 118.521 355.333 118.308 354.96C118.094 354.587 117.988 354.181 117.988 353.744C117.988 352.933 118.297 352.309 118.916 351.872C119.534 351.435 120.377 351.216 121.444 351.216H123.588V351.12C123.588 350.427 123.406 349.904 123.044 349.552C122.681 349.189 122.196 349.008 121.588 349.008C121.065 349.008 120.612 349.141 120.228 349.408C119.854 349.664 119.62 350.043 119.524 350.544H118.148C118.201 349.968 118.393 349.483 118.724 349.088C119.065 348.693 119.486 348.395 119.988 348.192C120.489 347.979 121.022 347.872 121.588 347.872C122.697 347.872 123.529 348.171 124.084 348.768C124.649 349.355 124.932 350.139 124.932 351.12V356H123.732L123.652 354.576C123.428 355.024 123.097 355.408 122.66 355.728C122.233 356.037 121.657 356.192 120.932 356.192ZM121.14 355.056C121.652 355.056 122.089 354.923 122.452 354.656C122.825 354.389 123.108 354.043 123.3 353.616C123.492 353.189 123.588 352.741 123.588 352.272V352.256H121.556C120.766 352.256 120.206 352.395 119.876 352.672C119.556 352.939 119.396 353.275 119.396 353.68C119.396 354.096 119.545 354.432 119.844 354.688C120.153 354.933 120.585 355.056 121.14 355.056ZM126.948 356V348.064H128.164L128.244 349.488C128.5 348.987 128.868 348.592 129.348 348.304C129.828 348.016 130.372 347.872 130.98 347.872C131.918 347.872 132.665 348.16 133.22 348.736C133.785 349.301 134.068 350.176 134.068 351.36V356H132.724V351.504C132.724 349.851 132.041 349.024 130.676 349.024C129.993 349.024 129.422 349.275 128.964 349.776C128.516 350.267 128.292 350.971 128.292 351.888V356H126.948ZM139.704 356.192C138.915 356.192 138.221 356.011 137.624 355.648C137.037 355.285 136.579 354.789 136.248 354.16C135.928 353.531 135.768 352.816 135.768 352.016C135.768 351.216 135.933 350.507 136.264 349.888C136.595 349.259 137.053 348.768 137.64 348.416C138.227 348.053 138.92 347.872 139.72 347.872C140.371 347.872 140.947 348.005 141.448 348.272C141.949 348.539 142.339 348.912 142.616 349.392V344.48H143.96V356H142.744L142.616 354.688C142.36 355.072 141.992 355.419 141.512 355.728C141.032 356.037 140.429 356.192 139.704 356.192ZM139.848 355.024C140.381 355.024 140.851 354.901 141.256 354.656C141.672 354.4 141.992 354.048 142.216 353.6C142.451 353.152 142.568 352.629 142.568 352.032C142.568 351.435 142.451 350.912 142.216 350.464C141.992 350.016 141.672 349.669 141.256 349.424C140.851 349.168 140.381 349.04 139.848 349.04C139.325 349.04 138.856 349.168 138.44 349.424C138.035 349.669 137.715 350.016 137.48 350.464C137.256 350.912 137.144 351.435 137.144 352.032C137.144 352.629 137.256 353.152 137.48 353.6C137.715 354.048 138.035 354.4 138.44 354.656C138.856 354.901 139.325 355.024 139.848 355.024ZM146.151 356V344.48H147.495V356H146.151ZM150.514 346.304C150.247 346.304 150.023 346.219 149.842 346.048C149.671 345.867 149.586 345.643 149.586 345.376C149.586 345.12 149.671 344.907 149.842 344.736C150.023 344.565 150.247 344.48 150.514 344.48C150.77 344.48 150.988 344.565 151.17 344.736C151.351 344.907 151.442 345.12 151.442 345.376C151.442 345.643 151.351 345.867 151.17 346.048C150.988 346.219 150.77 346.304 150.514 346.304ZM149.842 356V348.064H151.186V356H149.842ZM153.526 356V348.064H154.742L154.822 349.488C155.078 348.987 155.446 348.592 155.926 348.304C156.406 348.016 156.95 347.872 157.558 347.872C158.497 347.872 159.243 348.16 159.798 348.736C160.363 349.301 160.646 350.176 160.646 351.36V356H159.302V351.504C159.302 349.851 158.619 349.024 157.254 349.024C156.571 349.024 156.001 349.275 155.542 349.776C155.094 350.267 154.87 350.971 154.87 351.888V356H153.526ZM165.818 353.504C165.37 353.504 164.959 353.445 164.586 353.328L163.786 354.08C163.903 354.165 164.047 354.24 164.218 354.304C164.399 354.357 164.655 354.411 164.986 354.464C165.317 354.507 165.781 354.555 166.378 354.608C167.445 354.683 168.207 354.928 168.666 355.344C169.125 355.76 169.354 356.304 169.354 356.976C169.354 357.435 169.226 357.872 168.97 358.288C168.725 358.704 168.341 359.045 167.818 359.312C167.306 359.579 166.645 359.712 165.834 359.712C165.119 359.712 164.485 359.616 163.93 359.424C163.375 359.243 162.943 358.96 162.634 358.576C162.325 358.203 162.17 357.728 162.17 357.152C162.17 356.853 162.25 356.528 162.41 356.176C162.57 355.835 162.869 355.509 163.306 355.2C163.071 355.104 162.869 355.003 162.698 354.896C162.538 354.779 162.389 354.651 162.25 354.512V354.144L163.61 352.8C162.981 352.267 162.666 351.563 162.666 350.688C162.666 350.165 162.789 349.691 163.034 349.264C163.279 348.837 163.637 348.501 164.106 348.256C164.575 348 165.146 347.872 165.818 347.872C166.277 347.872 166.693 347.936 167.066 348.064H169.994V349.072L168.506 349.136C168.815 349.584 168.97 350.101 168.97 350.688C168.97 351.211 168.842 351.685 168.586 352.112C168.341 352.539 167.983 352.88 167.514 353.136C167.055 353.381 166.49 353.504 165.818 353.504ZM165.818 352.4C166.383 352.4 166.831 352.256 167.162 351.968C167.503 351.669 167.674 351.243 167.674 350.688C167.674 350.144 167.503 349.728 167.162 349.44C166.831 349.141 166.383 348.992 165.818 348.992C165.242 348.992 164.783 349.141 164.442 349.44C164.111 349.728 163.946 350.144 163.946 350.688C163.946 351.243 164.111 351.669 164.442 351.968C164.783 352.256 165.242 352.4 165.818 352.4ZM163.482 357.024C163.482 357.557 163.706 357.952 164.154 358.208C164.602 358.475 165.162 358.608 165.834 358.608C166.495 358.608 167.023 358.464 167.418 358.176C167.823 357.888 168.026 357.504 168.026 357.024C168.026 356.683 167.887 356.384 167.61 356.128C167.333 355.883 166.821 355.739 166.074 355.696C165.487 355.653 164.981 355.6 164.554 355.536C164.117 355.771 163.829 356.021 163.69 356.288C163.551 356.565 163.482 356.811 163.482 357.024Z" fill="black"/>
<path d="M23.088 313V301.8H27.232C28.128 301.8 28.8693 301.949 29.456 302.248C30.0427 302.547 30.48 302.957 30.768 303.48C31.056 304.003 31.2 304.589 31.2 305.24C31.2 305.859 31.0613 306.429 30.784 306.952C30.5067 307.464 30.0747 307.88 29.488 308.2C28.9013 308.509 28.1493 308.664 27.232 308.664H25.136V313H23.088ZM25.136 307H27.104C27.8187 307 28.3307 306.845 28.64 306.536C28.96 306.216 29.12 305.784 29.12 305.24C29.12 304.685 28.96 304.253 28.64 303.944C28.3307 303.624 27.8187 303.464 27.104 303.464H25.136V307ZM32.7588 313V305.064H34.5828L34.7748 306.552C35.0628 306.04 35.4521 305.635 35.9427 305.336C36.4441 305.027 37.0308 304.872 37.7028 304.872V307.032H37.1268C36.6788 307.032 36.2788 307.101 35.9268 307.24C35.5748 307.379 35.2974 307.619 35.0948 307.96C34.9028 308.301 34.8068 308.776 34.8068 309.384V313H32.7588ZM42.7699 313.192C42.0019 313.192 41.3085 313.016 40.6899 312.664C40.0819 312.312 39.5965 311.827 39.2339 311.208C38.8819 310.579 38.7059 309.853 38.7059 309.032C38.7059 308.211 38.8872 307.491 39.2499 306.872C39.6125 306.243 40.0979 305.752 40.7059 305.4C41.3245 305.048 42.0179 304.872 42.7859 304.872C43.5432 304.872 44.2259 305.048 44.8339 305.4C45.4525 305.752 45.9379 306.243 46.2899 306.872C46.6525 307.491 46.8339 308.211 46.8339 309.032C46.8339 309.853 46.6525 310.579 46.2899 311.208C45.9379 311.827 45.4525 312.312 44.8339 312.664C44.2152 313.016 43.5272 313.192 42.7699 313.192ZM42.7699 311.416C43.3032 311.416 43.7672 311.219 44.1619 310.824C44.5565 310.419 44.7539 309.821 44.7539 309.032C44.7539 308.243 44.5565 307.651 44.1619 307.256C43.7672 306.851 43.3085 306.648 42.7859 306.648C42.2419 306.648 41.7725 306.851 41.3779 307.256C40.9939 307.651 40.8019 308.243 40.8019 309.032C40.8019 309.821 40.9939 310.419 41.3779 310.824C41.7725 311.219 42.2365 311.416 42.7699 311.416ZM52.313 313.192C51.5663 313.192 50.8997 313.011 50.313 312.648C49.7263 312.285 49.2623 311.789 48.921 311.16C48.5797 310.531 48.409 309.816 48.409 309.016C48.409 308.216 48.5797 307.507 48.921 306.888C49.2623 306.259 49.7263 305.768 50.313 305.416C50.8997 305.053 51.5663 304.872 52.313 304.872C52.9103 304.872 53.433 304.984 53.881 305.208C54.329 305.432 54.6917 305.747 54.969 306.152V301.48H57.017V313H55.193L54.969 311.864C54.713 312.216 54.3717 312.525 53.945 312.792C53.529 313.059 52.985 313.192 52.313 313.192ZM52.745 311.4C53.4063 311.4 53.945 311.181 54.361 310.744C54.7877 310.296 55.001 309.725 55.001 309.032C55.001 308.339 54.7877 307.773 54.361 307.336C53.945 306.888 53.4063 306.664 52.745 306.664C52.0943 306.664 51.5557 306.883 51.129 307.32C50.7023 307.757 50.489 308.323 50.489 309.016C50.489 309.709 50.7023 310.28 51.129 310.728C51.5557 311.176 52.0943 311.4 52.745 311.4ZM62.0785 313.192C61.0865 313.192 60.3185 312.883 59.7745 312.264C59.2412 311.645 58.9745 310.739 58.9745 309.544V305.064H61.0065V309.352C61.0065 310.035 61.1452 310.557 61.4225 310.92C61.6998 311.283 62.1372 311.464 62.7345 311.464C63.2998 311.464 63.7638 311.261 64.1265 310.856C64.4998 310.451 64.6865 309.885 64.6865 309.16V305.064H66.7345V313H64.9265L64.7665 311.656C64.5212 312.125 64.1638 312.499 63.6945 312.776C63.2358 313.053 62.6972 313.192 62.0785 313.192ZM72.7249 313.192C71.9142 313.192 71.1995 313.016 70.5809 312.664C69.9622 312.312 69.4715 311.821 69.1089 311.192C68.7569 310.563 68.5809 309.843 68.5809 309.032C68.5809 308.221 68.7569 307.501 69.1089 306.872C69.4715 306.243 69.9622 305.752 70.5809 305.4C71.1995 305.048 71.9142 304.872 72.7249 304.872C73.7382 304.872 74.5915 305.139 75.2849 305.672C75.9782 306.195 76.4209 306.92 76.6129 307.848H74.4529C74.3462 307.464 74.1329 307.165 73.8129 306.952C73.5035 306.728 73.1355 306.616 72.7089 306.616C72.1435 306.616 71.6635 306.829 71.2689 307.256C70.8742 307.683 70.6769 308.275 70.6769 309.032C70.6769 309.789 70.8742 310.381 71.2689 310.808C71.6635 311.235 72.1435 311.448 72.7089 311.448C73.1355 311.448 73.5035 311.341 73.8129 311.128C74.1329 310.915 74.3462 310.611 74.4529 310.216H76.6129C76.4209 311.112 75.9782 311.832 75.2849 312.376C74.5915 312.92 73.7382 313.192 72.7249 313.192ZM81.8573 313C81.0253 313 80.3586 312.797 79.8573 312.392C79.3559 311.987 79.1053 311.267 79.1053 310.232V306.776H77.7453V305.064H79.1053L79.3453 302.936H81.1533V305.064H83.2973V306.776H81.1533V310.248C81.1533 310.632 81.2333 310.899 81.3932 311.048C81.5639 311.187 81.8519 311.256 82.2573 311.256H83.2493V313H81.8573ZM88.9161 313V301.8H90.9641V313H88.9161ZM93.0869 313V305.064H94.8949L95.0549 306.408C95.3002 305.939 95.6522 305.565 96.1109 305.288C96.5802 305.011 97.1295 304.872 97.7589 304.872C98.7402 304.872 99.5029 305.181 100.047 305.8C100.591 306.419 100.863 307.325 100.863 308.52V313H98.8149V308.712C98.8149 308.029 98.6762 307.507 98.3989 307.144C98.1215 306.781 97.6895 306.6 97.1029 306.6C96.5269 306.6 96.0522 306.803 95.6789 307.208C95.3162 307.613 95.1349 308.179 95.1349 308.904V313H93.0869ZM103.189 313V306.776H102.101V305.064H103.189V304.136C103.189 303.176 103.429 302.493 103.909 302.088C104.4 301.683 105.061 301.48 105.893 301.48H106.773V303.224H106.213C105.861 303.224 105.611 303.293 105.461 303.432C105.312 303.571 105.237 303.805 105.237 304.136V305.064H106.949V306.776H105.237V313H103.189ZM112.067 313.192C111.299 313.192 110.605 313.016 109.987 312.664C109.379 312.312 108.893 311.827 108.531 311.208C108.179 310.579 108.003 309.853 108.003 309.032C108.003 308.211 108.184 307.491 108.547 306.872C108.909 306.243 109.395 305.752 110.003 305.4C110.621 305.048 111.315 304.872 112.083 304.872C112.84 304.872 113.523 305.048 114.131 305.4C114.749 305.752 115.235 306.243 115.587 306.872C115.949 307.491 116.131 308.211 116.131 309.032C116.131 309.853 115.949 310.579 115.587 311.208C115.235 311.827 114.749 312.312 114.131 312.664C113.512 313.016 112.824 313.192 112.067 313.192ZM112.067 311.416C112.6 311.416 113.064 311.219 113.459 310.824C113.853 310.419 114.051 309.821 114.051 309.032C114.051 308.243 113.853 307.651 113.459 307.256C113.064 306.851 112.605 306.648 112.083 306.648C111.539 306.648 111.069 306.851 110.675 307.256C110.291 307.651 110.099 308.243 110.099 309.032C110.099 309.821 110.291 310.419 110.675 310.824C111.069 311.219 111.533 311.416 112.067 311.416ZM117.962 313V305.064H119.786L119.978 306.552C120.266 306.04 120.655 305.635 121.146 305.336C121.647 305.027 122.234 304.872 122.906 304.872V307.032H122.33C121.882 307.032 121.482 307.101 121.13 307.24C120.778 307.379 120.501 307.619 120.298 307.96C120.106 308.301 120.01 308.776 120.01 309.384V313H117.962ZM124.306 313V305.064H126.114L126.29 306.136C126.546 305.752 126.882 305.448 127.298 305.224C127.724 304.989 128.215 304.872 128.77 304.872C129.996 304.872 130.866 305.347 131.378 306.296C131.666 305.859 132.05 305.512 132.53 305.256C133.02 305 133.554 304.872 134.13 304.872C135.164 304.872 135.959 305.181 136.514 305.8C137.068 306.419 137.346 307.325 137.346 308.52V313H135.298V308.712C135.298 308.029 135.164 307.507 134.898 307.144C134.642 306.781 134.242 306.6 133.698 306.6C133.143 306.6 132.695 306.803 132.354 307.208C132.023 307.613 131.858 308.179 131.858 308.904V313H129.81V308.712C129.81 308.029 129.676 307.507 129.41 307.144C129.143 306.781 128.732 306.6 128.178 306.6C127.634 306.6 127.191 306.803 126.85 307.208C126.519 307.613 126.354 308.179 126.354 308.904V313H124.306ZM142.026 313.192C141.343 313.192 140.783 313.085 140.346 312.872C139.909 312.648 139.583 312.355 139.37 311.992C139.157 311.629 139.05 311.229 139.05 310.792C139.05 310.056 139.338 309.459 139.914 309C140.49 308.541 141.354 308.312 142.506 308.312H144.522V308.12C144.522 307.576 144.367 307.176 144.058 306.92C143.749 306.664 143.365 306.536 142.906 306.536C142.49 306.536 142.127 306.637 141.818 306.84C141.509 307.032 141.317 307.32 141.242 307.704H139.242C139.295 307.128 139.487 306.627 139.818 306.2C140.159 305.773 140.597 305.448 141.13 305.224C141.663 304.989 142.261 304.872 142.922 304.872C144.053 304.872 144.943 305.155 145.594 305.72C146.245 306.285 146.57 307.085 146.57 308.12V313H144.826L144.634 311.72C144.399 312.147 144.069 312.499 143.642 312.776C143.226 313.053 142.687 313.192 142.026 313.192ZM142.49 311.592C143.077 311.592 143.53 311.4 143.85 311.016C144.181 310.632 144.389 310.157 144.474 309.592H142.73C142.186 309.592 141.797 309.693 141.562 309.896C141.327 310.088 141.21 310.328 141.21 310.616C141.21 310.925 141.327 311.165 141.562 311.336C141.797 311.507 142.106 311.592 142.49 311.592ZM151.951 313C151.119 313 150.452 312.797 149.951 312.392C149.45 311.987 149.199 311.267 149.199 310.232V306.776H147.839V305.064H149.199L149.439 302.936H151.247V305.064H153.391V306.776H151.247V310.248C151.247 310.632 151.327 310.899 151.487 311.048C151.658 311.187 151.946 311.256 152.351 311.256H153.343V313H151.951ZM156.253 303.832C155.88 303.832 155.571 303.72 155.325 303.496C155.091 303.272 154.973 302.989 154.973 302.648C154.973 302.307 155.091 302.029 155.325 301.816C155.571 301.592 155.88 301.48 156.253 301.48C156.627 301.48 156.931 301.592 157.165 301.816C157.411 302.029 157.533 302.307 157.533 302.648C157.533 302.989 157.411 303.272 157.165 303.496C156.931 303.72 156.627 303.832 156.253 303.832ZM155.229 313V305.064H157.277V313H155.229ZM163.223 313.192C162.455 313.192 161.762 313.016 161.143 312.664C160.535 312.312 160.05 311.827 159.687 311.208C159.335 310.579 159.159 309.853 159.159 309.032C159.159 308.211 159.34 307.491 159.703 306.872C160.066 306.243 160.551 305.752 161.159 305.4C161.778 305.048 162.471 304.872 163.239 304.872C163.996 304.872 164.679 305.048 165.287 305.4C165.906 305.752 166.391 306.243 166.743 306.872C167.106 307.491 167.287 308.211 167.287 309.032C167.287 309.853 167.106 310.579 166.743 311.208C166.391 311.827 165.906 312.312 165.287 312.664C164.668 313.016 163.98 313.192 163.223 313.192ZM163.223 311.416C163.756 311.416 164.22 311.219 164.615 310.824C165.01 310.419 165.207 309.821 165.207 309.032C165.207 308.243 165.01 307.651 164.615 307.256C164.22 306.851 163.762 306.648 163.239 306.648C162.695 306.648 162.226 306.851 161.831 307.256C161.447 307.651 161.255 308.243 161.255 309.032C161.255 309.821 161.447 310.419 161.831 310.824C162.226 311.219 162.69 311.416 163.223 311.416ZM169.118 313V305.064H170.926L171.086 306.408C171.331 305.939 171.683 305.565 172.142 305.288C172.611 305.011 173.161 304.872 173.79 304.872C174.771 304.872 175.534 305.181 176.078 305.8C176.622 306.419 176.894 307.325 176.894 308.52V313H174.846V308.712C174.846 308.029 174.707 307.507 174.43 307.144C174.153 306.781 173.721 306.6 173.134 306.6C172.558 306.6 172.083 306.803 171.71 307.208C171.347 307.613 171.166 308.179 171.166 308.904V313H169.118Z" fill="black"/>
<path d="M187.6 303.1L192.253 307.753C192.389 307.89 192.389 308.111 192.253 308.248L187.6 312.9" stroke="#707070" stroke-width="1.4" stroke-linecap="round" stroke-linejoin="round"/>
</svg>
