<svg width="20" height="20" viewBox="0 0 20 20" fill="none" xmlns="http://www.w3.org/2000/svg">
<path d="M2 3.00021H3.2362C3.68715 3.00021 4.08232 3.30204 4.20097 3.7371L6.79903 13.2633C6.91768 13.6984 7.31284 14.0002 7.7638 14.0002H15.2192C15.6781 14.0002 16.0781 13.6879 16.1894 13.2427L17.6894 7.24275C17.8472 6.6116 17.3698 6.00021 16.7192 6.00021H4.85714M5.42857 17.0002C5.42857 17.2369 5.23669 17.4288 5 17.4288C4.76331 17.4288 4.57143 17.2369 4.57143 17.0002C4.57143 16.7635 4.76331 16.5716 5 16.5716C5.23669 16.5716 5.42857 16.7635 5.42857 17.0002ZM15.4286 17.0002C15.4286 17.2369 15.2367 17.4288 15 17.4288C14.7633 17.4288 14.5714 17.2369 14.5714 17.0002C14.5714 16.7635 14.7633 16.5716 15 16.5716C15.2367 16.5716 15.4286 16.7635 15.4286 17.0002ZM4.99643 16.9966H5.0031V17.0038H4.99643V16.9966ZM14.9964 16.9966H15.0031V17.0038H14.9964V16.9966Z" stroke="#173030" stroke-width="1.4" stroke-linecap="round" stroke-linejoin="round"/>
</svg>
