<svg width="20" height="20" viewBox="0 0 20 20" fill="none" xmlns="http://www.w3.org/2000/svg">
<path d="M4.30556 15.0831C5.7731 13.7944 7.783 12.9998 10 12.9998C12.217 12.9998 14.2269 13.7944 15.6944 15.0831M18 9.99979C18 14.4181 14.4183 17.9998 10 17.9998C5.58172 17.9998 2 14.4181 2 9.99979C2 5.58151 5.58172 1.99979 10 1.99979C14.4183 1.99979 18 5.58151 18 9.99979ZM12 7.99979C12 9.10436 11.1046 9.99979 10 9.99979C8.89543 9.99979 8 9.10436 8 7.99979C8 6.89522 8.89543 5.99979 10 5.99979C11.1046 5.99979 12 6.89522 12 7.99979Z" stroke="#173030" stroke-width="1.4" stroke-linecap="round"/>
</svg>
